<?xml version="1.0" encoding="utf-8"?>
<!-- Generator: Adobe Illustrator 16.0.0, SVG Export Plug-In . SVG Version: 6.00 Build 0)  -->
<!DOCTYPE svg PUBLIC "-//W3C//DTD SVG 1.1//EN" "http://www.w3.org/Graphics/SVG/1.1/DTD/svg11.dtd">
<svg version="1.1" id="Layer_1" xmlns="http://www.w3.org/2000/svg" xmlns:xlink="http://www.w3.org/1999/xlink" x="0px" y="0px"
	 width="1920px" height="1080px" viewBox="0 0 1920 1080" enable-background="new 0 0 1920 1080" xml:space="preserve">
<g>
	<path fill="#53D5F4" d="M996,586.529c0,1.897-1.026,4.471-2.922,4.471h-64.156c-1.896,0-3.922-2.573-3.922-4.471v-93.686
		c0-1.899,2.026-2.844,3.922-2.844h64.156c1.896,0,2.922,0.944,2.922,2.844V586.529z"/>
	<path fill="#FFFFFF" d="M987,515.996c0,1.659-1.345,3.004-3.004,3.004h-45.992c-1.659,0-3.004-1.345-3.004-3.004v-11.992
		c0-1.659,1.345-3.004,3.004-3.004h45.992c1.659,0,3.004,1.345,3.004,3.004V515.996z"/>
	<path fill="#448EA5" d="M949,540.539c0,0.789,0.127,1.461-0.664,1.461h-8.824c-0.789,0-1.512-0.672-1.512-1.461v-8.825
		c0-0.79,0.723-0.714,1.512-0.714h8.824c0.791,0,0.664-0.076,0.664,0.714V540.539z"/>
	<path fill="#448EA5" d="M950,560.569c0,0.79-0.641,1.431-1.431,1.431h-9.139c-0.79,0-1.431-0.641-1.431-1.431v-9.139
		c0-0.79,0.641-1.431,1.431-1.431h9.139c0.79,0,1.431,0.641,1.431,1.431V560.569z"/>
	<path fill="#448EA5" d="M969,541.57c0,0.79-0.641,1.43-1.43,1.43h-9.141c-0.789,0-1.43-0.64-1.43-1.43v-9.141
		c0-0.79,0.641-1.43,1.43-1.43h9.141c0.789,0,1.43,0.64,1.43,1.43V541.57z"/>
	<path fill="#448EA5" d="M969,560.569c0,0.79-0.641,1.431-1.43,1.431h-9.141c-0.789,0-1.43-0.641-1.43-1.431v-9.139
		c0-0.79,0.641-1.431,1.43-1.431h9.141c0.789,0,1.43,0.641,1.43,1.431V560.569z"/>
	<path fill="#448EA5" d="M950,580.571c0,0.789-0.641,1.429-1.431,1.429h-9.139c-0.79,0-1.431-0.64-1.431-1.429v-9.143
		c0-0.789,0.641-1.429,1.431-1.429h9.139c0.79,0,1.431,0.64,1.431,1.429V580.571z"/>
	<path fill="#448EA5" d="M969,580.571c0,0.789-0.641,1.429-1.43,1.429h-9.141c-0.789,0-1.43-0.64-1.43-1.429v-9.143
		c0-0.789,0.641-1.429,1.43-1.429h9.141c0.789,0,1.43,0.64,1.43,1.429V580.571z"/>
	<path fill="#448EA5" d="M989,577.979c0,1.485-0.22,3.021-1.287,3.021h-7.938c-1.066,0-1.774-1.536-1.774-3.021v-45.115
		c0-1.486,0.708-1.863,1.774-1.863h7.938c1.067,0,1.287,0.377,1.287,1.863V577.979z"/>
</g>
</svg>
