<?xml version="1.0" encoding="utf-8"?>
<!-- Generator: Adobe Illustrator 16.0.3, SVG Export Plug-In . SVG Version: 6.00 Build 0)  -->
<!DOCTYPE svg PUBLIC "-//W3C//DTD SVG 1.1//EN" "http://www.w3.org/Graphics/SVG/1.1/DTD/svg11.dtd">
<svg version="1.1" id="Layer_1" xmlns="http://www.w3.org/2000/svg" xmlns:xlink="http://www.w3.org/1999/xlink" x="0px" y="0px"
	 width="233.667px" height="242.333px" viewBox="0 0 233.667 242.333" enable-background="new 0 0 233.667 242.333"
	 xml:space="preserve">
<g>
	<g>
		<path fill="#448EA5" d="M1.727,127.481C0.621,63.923,51.254,11.504,114.813,10.399c63.559-1.103,115.979,49.527,117.084,113.085
			c1.104,63.564-49.527,115.98-113.088,117.084C55.248,241.674,2.83,191.042,1.727,127.481z"/>
		<path fill="#53D5F4" d="M1.727,118.936C0.621,55.377,51.254,2.958,114.813,1.854c63.559-1.103,115.979,49.527,117.084,113.086
			c1.104,63.563-49.527,115.98-113.088,117.084C55.248,233.129,2.83,182.497,1.727,118.936z"/>
	</g>
	<g>
		<path fill="#FFFFFF" d="M82.806,161.754h-5.112v-20.898h0.122v-0.059h16.014c12.371,0,18.004-9.443,18.004-18.22
			c0-9.106-6.183-18.324-18.004-18.324H64.31c-6.873,0-10.004-5.374-10.004-10.367c0-4.941,3.131-10.261,10.004-10.261h23.918
			c3.166,0,5.919,0.881,7.761,2.492c1.665,1.429,2.509,3.386,2.509,5.821c0,2.23,1.774,4.046,3.957,4.046
			c2.23,0,4.044-1.816,4.044-4.046V78.777c0-2.555-2.061-3.934-4-3.934c-1.839,0-3.79,1.241-3.984,3.551
			c-3.594-2.362-7.802-2.771-10.286-2.771H64.31c-5.549,0-10.216,1.984-13.495,5.738c-2.887,3.302-4.478,7.744-4.478,12.5
			c0,8.88,5.843,17.839,16.993,18.344c0.369,0.116,0.753,0.198,1.158,0.198h5.202v20.361h-5.202c-0.096,0-0.188,0.021-0.28,0.029
			h-0.523c-5.377,0-10.802-2.818-10.802-9.111c0-2.219-1.776-3.958-4.044-3.958c-2.182,0-3.957,1.775-3.957,3.958
			c0,11.236,9.46,17.113,18.803,17.113h0.259c0.179,0.029,0.357,0.059,0.544,0.059h5.202v20.898h-5.202
			c-2.145,0-3.956,1.809-3.956,3.953c0,2.23,1.774,4.047,3.956,4.047h18.317c2.23,0,4.044-1.816,4.044-4.047
			C86.85,163.528,85.036,161.754,82.806,161.754 M77.693,132.766v-20.361h0.122v-0.149h16.014c6.919,0,10.07,5.351,10.07,10.32
			c0,4.923-3.151,10.22-10.07,10.22H77.815v-0.029H77.693z"/>
		<g>
			<path fill="#FFFFFF" d="M121.171,132.862h4.76c2.413,0,4.449-0.822,5.887-2.379c1.273-1.381,1.975-3.232,1.975-5.215
				c0-3.785-2.699-7.611-7.861-7.611c-1.527,0-3.055,0.008-4.582,0.014c-1.525,0.007-3.05,0.013-4.576,0.013h-0.734v20.895h5.132
				V132.862z M121.171,122.62h4.76c1.916,0,2.774,1.363,2.774,2.717c0,0.717-0.244,1.381-0.687,1.869
				c-0.492,0.543-1.215,0.83-2.088,0.83h-4.76V122.62z"/>
			<path fill="#FFFFFF" d="M153.009,120.274c-1.926-1.95-4.563-2.979-7.622-2.979c-7.369,0-10.726,5.688-10.726,10.975
				c0,5.352,3.315,10.754,10.726,10.754c7.308,0,10.638-5.41,10.695-10.773C156.115,125.19,154.995,122.282,153.009,120.274
				 M145.387,134.198c-5.101,0-5.614-4.51-5.651-5.889c-0.047-1.84,0.561-3.547,1.668-4.68c0.993-1.02,2.334-1.535,3.983-1.535
				c1.633,0,2.958,0.505,3.939,1.502c1.1,1.117,1.712,2.828,1.683,4.689C150.959,131.143,149.454,134.198,145.387,134.198"/>
			<path fill="#FFFFFF" d="M163.187,132.083h2.458l5.661,6.494h5.424v-1.26l-5.289-5.963c2.762-0.99,4.319-3.301,4.319-6.498
				c0-3.432-2.418-7.14-7.728-7.172c-1.539,0-3.08-0.007-4.617-0.013c-1.543-0.006-3.084-0.014-4.625-0.014h-0.734v20.92h5.131
				V132.083z M168.032,127.315h-4.846v-4.751h4.846c1.915,0,2.596,1.226,2.596,2.374
				C170.628,126.088,169.947,127.315,168.032,127.315"/>
			<polygon fill="#FFFFFF" points="183.366,138.579 188.497,138.579 188.497,122.481 194.659,122.481 194.659,117.684 
				177.204,117.684 177.204,122.481 183.366,122.481 			"/>
			<path fill="#FFFFFF" d="M117.781,145.321l-9.597,21.4v-2.746H96.564v-18.654h-5.728v24.059h16.153h1.193h5.027l1.937-4.26h10.865
				l1.903,4.26h6.255l-10.791-24.059H117.781z M123.657,159.684h-6.152l3.076-7.051L123.657,159.684z"/>
			<polygon fill="#FFFFFF" points="140.762,154.006 135.411,145.321 129.202,145.321 129.202,146.467 137.884,159.542 
				137.884,169.379 143.611,169.379 143.611,159.547 152.617,146.477 152.617,145.321 146.352,145.321 			"/>
			<polygon fill="#FFFFFF" points="152.951,169.379 171.331,169.379 171.331,163.717 158.646,163.717 158.646,160.086 
				170.878,160.086 170.878,154.649 158.646,154.649 158.646,150.92 171.331,150.92 171.331,145.321 152.951,145.321 			"/>
			<path fill="#FFFFFF" d="M188.421,161.043c3.266-1.104,5.11-3.775,5.11-7.502c0-3.932-2.774-8.184-8.868-8.223
				c-1.79,0-3.579-0.006-5.369-0.014c-1.793-0.008-3.585-0.018-5.379-0.018h-0.732v24.092h5.727v-7.551h3.033l6.584,7.551h6.135
				v-1.305L188.421,161.043z M187.804,153.639c0,1.391-0.824,2.881-3.141,2.881h-5.754v-5.762h5.754
				C186.981,150.758,187.804,152.309,187.804,153.639"/>
		</g>
	</g>
</g>
<g>
</g>
<g>
</g>
<g>
</g>
<g>
</g>
<g>
</g>
<g>
</g>
<g>
</g>
<g>
</g>
<g>
</g>
<g>
</g>
<g>
</g>
<g>
</g>
<g>
</g>
<g>
</g>
<g>
</g>
</svg>
