<?xml version="1.0" encoding="utf-8"?>
<!-- Generator: Adobe Illustrator 16.0.3, SVG Export Plug-In . SVG Version: 6.00 Build 0)  -->
<!DOCTYPE svg PUBLIC "-//W3C//DTD SVG 1.1//EN" "http://www.w3.org/Graphics/SVG/1.1/DTD/svg11.dtd">
<svg version="1.1" id="Layer_1" xmlns="http://www.w3.org/2000/svg" xmlns:xlink="http://www.w3.org/1999/xlink" x="0px" y="0px"
	 width="233.667px" height="242.333px" viewBox="0 0 233.667 242.333" enable-background="new 0 0 233.667 242.333"
	 xml:space="preserve">
<g>
	<path fill="#8F033B" d="M2.06,127.149C0.954,63.589,51.587,11.17,115.146,10.066c63.559-1.103,115.979,49.527,117.084,113.087
		c1.104,63.563-49.527,115.98-113.088,117.084C55.581,241.342,3.163,190.709,2.06,127.149z"/>
	<path fill="#D4145A" d="M2.06,118.603C0.954,55.044,51.587,2.625,115.146,1.521c63.559-1.103,115.979,49.527,117.084,113.086
		c1.104,63.562-49.527,115.98-113.088,117.085C55.581,232.795,3.163,182.163,2.06,118.603z"/>
	<g>
		<path fill="#53D5F4" d="M132.054,136.915c0,3.801-0.256,6.752-4.119,6.752h-26.089c-0.107-4-3.208-6.817-7.018-6.817
			c-3.817,0-6.918,2.817-7.026,6.817h-8.954c-3.856,0-7.515-2.716-7.515-6.518V91.44c0-3.794,3.659-6.774,7.515-6.774h45.231
			c3.863,0,6.879,2.937,6.879,6.73l0.123,7.217l0.101,6.18l0.603,16.201l0.549,13.27v0.047L132.054,136.915z"/>
		<g>
			<path fill="#448EA5" d="M140.183,137.357c3.854,0,6.987,3.135,6.987,6.988s-3.134,6.988-6.987,6.988s-6.988-3.135-6.988-6.988
				S136.329,137.357,140.183,137.357 M140.183,131.187c-7.268,0-13.158,5.891-13.158,13.158s5.891,13.158,13.158,13.158
				c7.267,0,13.157-5.891,13.157-13.158S147.449,131.187,140.183,131.187L140.183,131.187z"/>
		</g>
		<g>
			<path fill="#448EA5" d="M94.683,137.357c3.853,0,6.988,3.135,6.988,6.988s-3.135,6.988-6.988,6.988
				c-3.854,0-6.989-3.135-6.989-6.988S90.829,137.357,94.683,137.357 M94.683,131.187c-7.268,0-13.159,5.891-13.159,13.158
				s5.891,13.158,13.159,13.158c7.267,0,13.157-5.891,13.157-13.158S101.949,131.187,94.683,131.187L94.683,131.187z"/>
		</g>
		<path fill="#53D5F4" d="M131.333,98.667h6.003c0,0,2.72-0.583,4.618,1.821l14.136,13.895c0,0,3.243,2.065,2.243,5.671v14.613
			l1.984-0.063c0,0,2.016,0.316,2.016,2.024v5.44c0,0,0.243,1.599-1.528,1.599h-7.528c0,0,0.432-8.564-8.867-11.729
			c-7.623-2.719-13.076,2.918-13.076,2.918v-14.189h20v-1.372l-14.188-14.628h-5.813V98.667z"/>
	</g>
</g>
<g>
</g>
<g>
</g>
<g>
</g>
<g>
</g>
<g>
</g>
<g>
</g>
<g>
</g>
<g>
</g>
<g>
</g>
<g>
</g>
<g>
</g>
<g>
</g>
<g>
</g>
<g>
</g>
<g>
</g>
</svg>
