<?xml version="1.0" encoding="utf-8"?>
<!-- Generator: Adobe Illustrator 16.0.3, SVG Export Plug-In . SVG Version: 6.00 Build 0)  -->
<!DOCTYPE svg PUBLIC "-//W3C//DTD SVG 1.1//EN" "http://www.w3.org/Graphics/SVG/1.1/DTD/svg11.dtd">
<svg version="1.1" id="Layer_1" xmlns="http://www.w3.org/2000/svg" xmlns:xlink="http://www.w3.org/1999/xlink" x="0px" y="0px"
	 width="233.667px" height="242.333px" viewBox="0 0 233.667 242.333" enable-background="new 0 0 233.667 242.333"
	 xml:space="preserve">
<path fill="#A8A654" d="M1.727,127.481C0.621,63.923,51.254,11.504,114.813,10.399c63.559-1.103,115.979,49.527,117.084,113.085
	c1.104,63.564-49.527,115.98-113.088,117.084C55.248,241.674,2.83,191.042,1.727,127.481z"/>
<path fill="#F9F871" d="M1.727,118.936C0.621,55.377,51.254,2.958,114.813,1.854c63.559-1.103,115.979,49.527,117.084,113.086
	c1.104,63.563-49.527,115.98-113.088,117.084C55.248,233.129,2.83,182.497,1.727,118.936z"/>
<g>
	<path fill="#53D5F4" d="M149.333,164.795c0,1.785-1.516,3.871-3.299,3.871H85.688c-1.782,0-3.355-2.086-3.355-3.871V76.675
		c0-1.787,1.573-3.008,3.355-3.008h60.346c1.783,0,3.299,1.222,3.299,3.008V164.795z"/>
	<path fill="#FFFFFF" d="M140.333,97.841c0,1.561-1.265,2.826-2.825,2.826h-43.35c-1.561,0-2.825-1.265-2.825-2.826V86.492
		c0-1.561,1.265-2.826,2.825-2.826h43.35c1.561,0,2.825,1.265,2.825,2.826V97.841z"/>
	<path fill="#448EA5" d="M105.333,121.537c0,0.743-0.639,1.13-1.383,1.13h-8.301c-0.742,0-1.316-0.387-1.316-1.13v-8.301
		c0-0.743,0.574-0.569,1.316-0.569h8.301c0.744,0,1.383-0.174,1.383,0.569V121.537z"/>
	<path fill="#448EA5" d="M105.333,139.321c0,0.743-0.603,1.346-1.346,1.346h-8.309c-0.743,0-1.346-0.603-1.346-1.346v-8.309
		c0-0.743,0.603-1.346,1.346-1.346h8.309c0.743,0,1.346,0.603,1.346,1.346V139.321z"/>
	<path fill="#448EA5" d="M123.333,122.322c0,0.743-0.602,1.345-1.345,1.345h-8.311c-0.743,0-1.345-0.602-1.345-1.345v-8.311
		c0-0.743,0.602-1.345,1.345-1.345h8.311c0.743,0,1.345,0.602,1.345,1.345V122.322z"/>
	<path fill="#448EA5" d="M123.333,139.321c0,0.743-0.602,1.346-1.345,1.346h-8.311c-0.743,0-1.345-0.603-1.345-1.346v-8.309
		c0-0.743,0.602-1.346,1.345-1.346h8.311c0.743,0,1.345,0.603,1.345,1.346V139.321z"/>
	<path fill="#448EA5" d="M105.333,158.655c0,0.744-0.936,1.012-1.679,1.012h-8.309c-0.743,0-1.013-0.268-1.013-1.012v-8.311
		c0-0.742,0.27-1.678,1.013-1.678h8.309c0.743,0,1.679,0.936,1.679,1.678V158.655z"/>
	<path fill="#448EA5" d="M123.333,158.655c0,0.744-0.936,1.012-1.678,1.012h-8.311c-0.742,0-1.012-0.268-1.012-1.012v-8.311
		c0-0.742,0.27-1.678,1.012-1.678h8.311c0.742,0,1.678,0.936,1.678,1.678V158.655z"/>
	<path fill="#448EA5" d="M142.333,156.752c0,1.396-0.342,2.914-1.346,2.914h-7.467c-1.003,0-1.188-1.518-1.188-2.914v-42.436
		c0-1.398,0.185-1.65,1.188-1.65h7.467c1.004,0,1.346,0.252,1.346,1.65V156.752z"/>
</g>
<g>
</g>
<g>
</g>
<g>
</g>
<g>
</g>
<g>
</g>
<g>
</g>
<g>
</g>
<g>
</g>
<g>
</g>
<g>
</g>
<g>
</g>
<g>
</g>
<g>
</g>
<g>
</g>
<g>
</g>
</svg>
