<?xml version="1.0" encoding="utf-8"?>
<!-- Generator: Adobe Illustrator 16.0.3, SVG Export Plug-In . SVG Version: 6.00 Build 0)  -->
<!DOCTYPE svg PUBLIC "-//W3C//DTD SVG 1.1//EN" "http://www.w3.org/Graphics/SVG/1.1/DTD/svg11.dtd">
<svg version="1.1" id="Layer_1" xmlns="http://www.w3.org/2000/svg" xmlns:xlink="http://www.w3.org/1999/xlink" x="0px" y="0px"
	 width="59.569px" height="59.683px" viewBox="0 0 59.569 59.683" enable-background="new 0 0 59.569 59.683" xml:space="preserve">
<g>
	<circle fill="#676565" cx="29.99" cy="29.732" r="28.785"/>
	<g>
		<path fill="#F9F871" d="M22.637,17.308l-4.58,1.042c0,0-1.063,0.195-1.085,1.237c-0.022,1.042,0.303,5.689,1.888,9.01
			c1.584,3.322,4.062,6.796,6.949,8.88c2.887,2.086,6.968,4.538,13.308,4.712c1.454,0,1.435-0.348,1.672-1.063l1.152-4.908
			c0,0,0.303-0.999-0.826-1.412l-5.145-2.191c0,0-0.804-0.456-1.434,0.174l-2.497,3.017c0,0-5.689-2.148-8.642-8.577l3.127-2.604
			c0,0,0.456-0.869,0-1.563l-2.235-5.167C24.29,17.894,23.768,16.83,22.637,17.308z"/>
		<g>
			<path fill="#A2A151" d="M37.238,20.636h0.857l-0.604,3.081c-0.023,0.097-0.046,0.206-0.066,0.326
				c-0.02,0.121-0.03,0.234-0.03,0.338c0,0.105,0.019,0.191,0.055,0.26s0.106,0.103,0.212,0.103c0.137,0,0.283-0.066,0.44-0.199
				s0.304-0.308,0.441-0.525c0.137-0.218,0.254-0.463,0.351-0.737c0.096-0.273,0.152-0.556,0.169-0.846
				c0.032-0.531-0.032-1.004-0.193-1.419c-0.161-0.415-0.395-0.767-0.701-1.057c-0.306-0.29-0.67-0.509-1.093-0.658
				s-0.881-0.224-1.371-0.224c-0.54,0-1.035,0.097-1.486,0.29s-0.842,0.461-1.172,0.803c-0.33,0.343-0.588,0.749-0.773,1.22
				s-0.277,0.981-0.277,1.528c0,0.58,0.101,1.105,0.302,1.577s0.479,0.876,0.833,1.214c0.354,0.338,0.77,0.598,1.245,0.779
				c0.475,0.181,0.986,0.271,1.534,0.271c1.022,0,1.792-0.185,2.308-0.556l0.846,0.616c-0.21,0.113-0.429,0.217-0.659,0.314
				c-0.229,0.097-0.475,0.181-0.736,0.254c-0.262,0.072-0.546,0.131-0.852,0.175c-0.307,0.044-0.641,0.066-1.003,0.066
				c-0.652,0-1.263-0.119-1.83-0.356c-0.568-0.238-1.063-0.566-1.486-0.985c-0.423-0.418-0.757-0.916-1.003-1.492
				c-0.245-0.576-0.368-1.202-0.368-1.879c0-0.668,0.118-1.291,0.356-1.867c0.237-0.576,0.565-1.075,0.984-1.498
				s0.908-0.753,1.468-0.99c0.56-0.238,1.162-0.356,1.807-0.356c0.531,0,1.036,0.083,1.516,0.248s0.92,0.429,1.323,0.791
				c0.41,0.363,0.738,0.773,0.984,1.232s0.368,0.971,0.368,1.534c0,0.5-0.064,0.969-0.193,1.408s-0.313,0.815-0.556,1.129
				c-0.289,0.387-0.6,0.661-0.93,0.822s-0.641,0.233-0.931,0.217c-0.169-0.008-0.31-0.074-0.423-0.199
				c-0.112-0.125-0.189-0.304-0.229-0.538c-0.209,0.209-0.445,0.385-0.706,0.525c-0.263,0.141-0.574,0.211-0.937,0.211
				c-0.266,0-0.521-0.056-0.768-0.169s-0.461-0.27-0.646-0.471s-0.334-0.437-0.446-0.707c-0.113-0.27-0.17-0.558-0.17-0.864
				c0-0.362,0.059-0.714,0.176-1.057c0.116-0.342,0.281-0.646,0.495-0.912c0.213-0.266,0.471-0.479,0.773-0.64
				c0.302-0.161,0.642-0.242,1.021-0.242c0.306,0,0.59,0.063,0.852,0.188s0.514,0.344,0.755,0.658L37.238,20.636z M33.843,23.294
				c0,0.411,0.111,0.755,0.333,1.033c0.221,0.278,0.545,0.417,0.972,0.417c0.267,0,0.496-0.052,0.689-0.157
				c0.193-0.105,0.354-0.24,0.482-0.405s0.23-0.353,0.303-0.562s0.12-0.423,0.145-0.64c0.057-0.483-0.03-0.876-0.26-1.178
				c-0.229-0.302-0.554-0.453-0.973-0.453c-0.241,0-0.467,0.058-0.676,0.175c-0.21,0.117-0.389,0.268-0.538,0.453
				c-0.149,0.186-0.266,0.393-0.351,0.622C33.886,22.829,33.843,23.061,33.843,23.294z"/>
		</g>
	</g>
</g>
<g>
</g>
<g>
</g>
<g>
</g>
<g>
</g>
<g>
</g>
<g>
</g>
<g>
</g>
<g>
</g>
<g>
</g>
<g>
</g>
<g>
</g>
<g>
</g>
<g>
</g>
<g>
</g>
<g>
</g>
</svg>
