<?xml version="1.0" encoding="utf-8"?>
<!-- Generator: Adobe Illustrator 16.0.3, SVG Export Plug-In . SVG Version: 6.00 Build 0)  -->
<!DOCTYPE svg PUBLIC "-//W3C//DTD SVG 1.1//EN" "http://www.w3.org/Graphics/SVG/1.1/DTD/svg11.dtd">
<svg version="1.1" id="Layer_1" xmlns="http://www.w3.org/2000/svg" xmlns:xlink="http://www.w3.org/1999/xlink" x="0px" y="0px"
	 width="153.75px" height="99px" viewBox="0 0 153.75 99" enable-background="new 0 0 153.75 99" xml:space="preserve">
<g>
	<path fill="#FFFFFF" d="M39.768,88.896h-5.158V67.813h0.123v-0.061h16.156c12.481,0,18.165-9.527,18.165-18.381
		c0-9.188-6.238-18.488-18.165-18.488H21.106c-6.934,0-10.093-5.422-10.093-10.459c0-4.985,3.159-10.353,10.093-10.353h24.131
		c3.194,0,5.972,0.889,7.83,2.514c1.68,1.441,2.531,3.416,2.531,5.873c0,2.25,1.79,4.082,3.992,4.082c2.25,0,4.08-1.832,4.08-4.082
		V5.18c0-2.577-2.079-3.969-4.036-3.969c-1.855,0-3.823,1.252-4.02,3.583C51.989,2.412,47.744,2,45.237,2H21.106
		C15.508,2,10.8,4.001,7.491,7.789C4.579,11.121,2.974,15.601,2.974,20.4c0,8.959,5.896,17.999,17.145,18.508
		c0.372,0.117,0.76,0.199,1.169,0.199h5.248V59.65h-5.248c-0.097,0-0.189,0.021-0.283,0.029h-0.527
		c-5.425,0-10.898-2.844-10.898-9.193c0-2.238-1.792-3.992-4.08-3.992c-2.201,0-3.992,1.791-3.992,3.992
		c0,11.336,9.544,17.266,18.971,17.266h0.262c0.181,0.029,0.36,0.061,0.549,0.061h5.248v21.084h-5.248
		c-2.164,0-3.991,1.824-3.991,3.988c0,2.25,1.79,4.082,3.991,4.082h18.48c2.25,0,4.08-1.832,4.08-4.082
		C43.848,90.686,42.018,88.896,39.768,88.896 M34.609,59.65V39.107h0.123v-0.15h16.156c6.981,0,10.16,5.398,10.16,10.412
		c0,4.967-3.179,10.311-10.16,10.311H34.732V59.65H34.609z"/>
	<path fill="#FFFFFF" d="M78.474,59.746h4.803c2.435,0,4.489-0.83,5.938-2.4c1.285-1.393,1.993-3.262,1.993-5.262
		c0-3.818-2.724-7.678-7.932-7.678c-1.541,0-3.082,0.008-4.623,0.014c-1.539,0.008-3.077,0.014-4.616,0.014h-0.741v21.08h5.178
		V59.746z M78.474,49.414h4.803c1.933,0,2.799,1.375,2.799,2.74c0,0.723-0.246,1.393-0.692,1.885
		c-0.497,0.549-1.226,0.838-2.106,0.838h-4.803V49.414z"/>
	<path fill="#FFFFFF" d="M110.596,47.047c-1.943-1.969-4.604-3.006-7.69-3.006c-7.435,0-10.82,5.738-10.82,11.072
		c0,5.4,3.345,10.85,10.82,10.85c7.373,0,10.732-5.459,10.791-10.869C113.729,52.006,112.6,49.072,110.596,47.047 M102.905,61.094
		c-5.146,0-5.664-4.549-5.701-5.941c-0.047-1.855,0.565-3.578,1.683-4.721c1.002-1.029,2.354-1.549,4.019-1.549
		c1.647,0,2.984,0.51,3.975,1.516c1.109,1.127,1.728,2.854,1.697,4.73C108.527,58.012,107.01,61.094,102.905,61.094"/>
	<path fill="#FFFFFF" d="M120.864,58.961h2.479l5.712,6.551h5.472V64.24l-5.336-6.016c2.786-0.998,4.357-3.33,4.357-6.555
		c0-3.463-2.439-7.205-7.796-7.236c-1.554,0-3.107-0.008-4.659-0.014c-1.557-0.006-3.111-0.014-4.665-0.014h-0.741v21.105h5.177
		V58.961z M125.753,54.15h-4.889v-4.793h4.889c1.932,0,2.618,1.236,2.618,2.395C128.371,52.912,127.685,54.15,125.753,54.15"/>
	<polygon fill="#FFFFFF" points="141.224,65.514 146.399,65.514 146.399,49.273 152.616,49.273 152.616,44.434 135.007,44.434 
		135.007,49.273 141.224,49.273 	"/>
	<path fill="#FFFFFF" d="M75.054,72.316l-9.683,21.59v-2.77H53.648v-18.82H47.87V96.59h16.297h1.204h5.072l1.954-4.299h10.961
		l1.921,4.299h6.311L80.703,72.316H75.054z M80.982,86.807h-6.207l3.104-7.113L80.982,86.807z"/>
	<polygon fill="#FFFFFF" points="98.239,81.078 92.842,72.316 86.577,72.316 86.577,73.473 95.336,86.664 95.336,96.59 
		101.114,96.59 101.114,86.67 110.2,73.482 110.2,72.316 103.879,72.316 	"/>
	<polygon fill="#FFFFFF" points="110.537,96.59 129.081,96.59 129.081,90.877 116.283,90.877 116.283,87.213 128.624,87.213 
		128.624,81.727 116.283,81.727 116.283,77.965 129.081,77.965 129.081,72.316 110.537,72.316 	"/>
	<path fill="#FFFFFF" d="M146.323,88.18c3.295-1.113,5.155-3.811,5.155-7.57c0-3.967-2.799-8.256-8.946-8.295
		c-1.807,0-3.611-0.006-5.417-0.014c-1.81-0.008-3.617-0.018-5.427-0.018h-0.739V96.59h5.777v-7.619h3.06l6.643,7.619h6.189v-1.316
		L146.323,88.18z M145.7,80.709c0,1.402-0.832,2.906-3.168,2.906h-5.806v-5.813h5.806C144.871,77.803,145.7,79.367,145.7,80.709"/>
</g>
</svg>
