<?xml version="1.0" encoding="utf-8"?>
<!-- Generator: Adobe Illustrator 16.0.3, SVG Export Plug-In . SVG Version: 6.00 Build 0)  -->
<!DOCTYPE svg PUBLIC "-//W3C//DTD SVG 1.1//EN" "http://www.w3.org/Graphics/SVG/1.1/DTD/svg11.dtd">
<svg version="1.1" id="Layer_1" xmlns="http://www.w3.org/2000/svg" xmlns:xlink="http://www.w3.org/1999/xlink" x="0px" y="0px"
	 width="155px" height="98px" viewBox="0 0 155 98" enable-background="new 0 0 155 98" xml:space="preserve">
<path fill="#0082CA" d="M40.018,88.729h-5.158V67.645h0.123v-0.058h16.156c12.481,0,18.165-9.53,18.165-18.383
	c0-9.188-6.238-18.487-18.165-18.487H21.356c-6.934,0-10.093-5.422-10.093-10.459c0-4.986,3.159-10.353,10.093-10.353h24.131
	c3.194,0,5.972,0.889,7.83,2.514c1.68,1.441,2.531,3.416,2.531,5.873c0,2.25,1.79,4.082,3.992,4.082c2.25,0,4.08-1.832,4.08-4.082
	V5.014c0-2.578-2.079-3.969-4.036-3.969c-1.855,0-3.823,1.253-4.02,3.583c-3.626-2.383-7.871-2.795-10.378-2.795H21.356
	c-5.599,0-10.307,2.002-13.615,5.789c-2.912,3.332-4.518,7.812-4.518,12.611c0,8.959,5.896,17.998,17.145,18.508
	c0.372,0.117,0.76,0.199,1.169,0.199h5.248v20.542h-5.248c-0.097,0-0.189,0.023-0.283,0.031h-0.527
	c-5.425,0-10.898-2.844-10.898-9.195c0-2.237-1.792-3.991-4.08-3.991c-2.201,0-3.992,1.791-3.992,3.991
	c0,11.336,9.544,17.269,18.971,17.269h0.262c0.181,0.026,0.36,0.058,0.549,0.058h5.248v21.084h-5.248
	c-2.164,0-3.991,1.826-3.991,3.99c0,2.25,1.79,4.082,3.991,4.082h18.48c2.25,0,4.08-1.832,4.08-4.082
	C44.098,90.518,42.268,88.729,40.018,88.729 M34.859,59.482V38.94h0.123v-0.15h16.156c6.981,0,10.16,5.398,10.16,10.412
	c0,4.967-3.179,10.312-10.16,10.312H34.982v-0.031H34.859z"/>
<path fill="#0082CA" d="M78.724,59.578h4.803c2.435,0,4.489-0.83,5.938-2.399c1.285-1.394,1.993-3.262,1.993-5.262
	c0-3.817-2.724-7.678-7.932-7.678c-1.541,0-3.082,0.008-4.623,0.014c-1.539,0.008-3.077,0.013-4.616,0.013h-0.741v21.081h5.178
	V59.578z M78.724,49.246h4.803c1.933,0,2.799,1.375,2.799,2.74c0,0.724-0.246,1.394-0.692,1.885
	c-0.497,0.55-1.226,0.839-2.106,0.839h-4.803V49.246z"/>
<path fill="#0082CA" d="M110.846,46.879c-1.943-1.967-4.604-3.006-7.69-3.006c-7.435,0-10.82,5.74-10.82,11.072
	c0,5.401,3.345,10.85,10.82,10.85c7.373,0,10.732-5.459,10.791-10.869C113.979,51.838,112.85,48.905,110.846,46.879 M103.155,60.926
	c-5.146,0-5.664-4.549-5.701-5.94c-0.047-1.856,0.565-3.577,1.683-4.721c1.002-1.028,2.354-1.55,4.019-1.55
	c1.647,0,2.984,0.511,3.975,1.517c1.109,1.127,1.728,2.853,1.697,4.729C108.777,57.844,107.26,60.926,103.155,60.926"/>
<path fill="#0082CA" d="M121.114,58.795h2.479l5.712,6.551h5.472v-1.273l-5.336-6.016c2.786-0.998,4.357-3.33,4.357-6.554
	c0-3.463-2.439-7.204-7.796-7.237c-1.554,0-3.107-0.006-4.659-0.013c-1.557-0.006-3.111-0.014-4.665-0.014h-0.741v21.107h5.177
	V58.795z M126.003,53.982h-4.889v-4.793h4.889c1.932,0,2.618,1.238,2.618,2.397C128.621,52.745,127.935,53.982,126.003,53.982"/>
<polygon fill="#0082CA" points="141.474,65.346 146.649,65.346 146.649,49.106 152.866,49.106 152.866,44.266 135.257,44.266 
	135.257,49.106 141.474,49.106 "/>
<path fill="#0082CA" d="M75.304,72.149l-9.683,21.59v-2.771H53.898V72.149H48.12v24.272h16.297h1.204h5.072l1.954-4.297h10.961
	l1.921,4.297h6.311L80.953,72.149H75.304z M81.232,86.639h-6.207l3.104-7.112L81.232,86.639z"/>
<polygon fill="#0082CA" points="98.489,80.91 93.092,72.148 86.827,72.148 86.827,73.307 95.586,86.496 95.586,96.423 
	101.364,96.423 101.364,86.503 110.45,73.314 110.45,72.148 104.129,72.148 "/>
<polygon fill="#0082CA" points="110.787,96.422 129.331,96.422 129.331,90.709 116.533,90.709 116.533,87.045 128.874,87.045 
	128.874,81.56 116.533,81.56 116.533,77.797 129.331,77.797 129.331,72.149 110.787,72.149 "/>
<path fill="#0082CA" d="M146.573,88.013c3.295-1.112,5.155-3.812,5.155-7.569c0-3.968-2.799-8.257-8.946-8.295
	c-1.807,0-3.611-0.007-5.417-0.015c-1.81-0.009-3.617-0.019-5.427-0.019h-0.739v24.307h5.777v-7.618h3.06l6.643,7.618h6.189v-1.314
	L146.573,88.013z M145.95,80.541c0,1.404-0.832,2.906-3.168,2.906h-5.806v-5.812h5.806C145.121,77.636,145.95,79.199,145.95,80.541"
	/>
<g>
</g>
<g>
</g>
<g>
</g>
<g>
</g>
<g>
</g>
<g>
</g>
<g>
</g>
<g>
</g>
<g>
</g>
<g>
</g>
<g>
</g>
<g>
</g>
<g>
</g>
<g>
</g>
<g>
</g>
</svg>
