<?xml version="1.0" encoding="utf-8"?>
<!-- Generator: Adobe Illustrator 16.0.0, SVG Export Plug-In . SVG Version: 6.00 Build 0)  -->
<!DOCTYPE svg PUBLIC "-//W3C//DTD SVG 1.1//EN" "http://www.w3.org/Graphics/SVG/1.1/DTD/svg11.dtd">
<svg version="1.1" id="Layer_1" xmlns="http://www.w3.org/2000/svg" xmlns:xlink="http://www.w3.org/1999/xlink" x="0px" y="0px"
	 width="113px" height="112.667px" viewBox="896.833 486.167 113 112.667" enable-background="new 896.833 486.167 113 112.667"
	 xml:space="preserve">
<g>
	<path fill="#53D5F4" d="M923.554,488.305l-19.771,4.497c0,0-4.591,0.844-4.685,5.342c-0.094,4.497,1.312,24.549,8.151,38.885
		c6.841,14.336,17.521,29.328,29.983,38.323c12.462,8.996,30.077,19.583,57.438,20.333c6.277,0,6.185-1.499,7.216-4.591
		l4.966-21.176c0,0,1.313-4.312-3.561-6.093l-22.207-9.464c0,0-3.467-1.967-6.186,0.75l-10.775,13.024
		c0,0-24.549-9.275-37.291-37.013l13.491-11.242c0,0,1.969-3.748,0-6.747l-9.65-22.3
		C930.676,490.835,928.427,486.242,923.554,488.305z"/>
	<text transform="matrix(1 0 0 1 958.2991 532.177)" fill="#448EA5" font-family="'FuturaLT-Book'" font-size="52.1385">@</text>
</g>
</svg>
