<?xml version="1.0" encoding="utf-8"?>
<!-- Generator: Adobe Illustrator 16.0.0, SVG Export Plug-In . SVG Version: 6.00 Build 0)  -->
<!DOCTYPE svg PUBLIC "-//W3C//DTD SVG 1.1//EN" "http://www.w3.org/Graphics/SVG/1.1/DTD/svg11.dtd">
<svg version="1.1" id="Layer_1" xmlns="http://www.w3.org/2000/svg" xmlns:xlink="http://www.w3.org/1999/xlink" x="0px" y="0px"
	 width="1920px" height="1080px" viewBox="0 0 1920 1080" enable-background="new 0 0 1920 1080" xml:space="preserve">
<g>
	<path fill="#53D5F4" d="M979.029,560.94c0,4.93,0.061,9.06-4.949,9.06h-33.83c-0.14-4.91-4.16-8.84-9.1-8.84
		c-4.95,0-8.971,3.93-9.11,8.84h-11.61c-5,0-9.43-4.13-9.43-9.06V501.67c0-4.92,4.43-8.67,9.43-8.67h58.65
		c5.01,0,8.92,3.75,8.92,8.67l0.16,9.33l0.13,8l0.39,21l0.32,17.2v0.06L979.029,560.94z"/>
	<g>
		<path fill="#448EA5" d="M989.962,561.209c4.996,0,9.062,4.065,9.062,9.063s-4.065,9.063-9.062,9.063
			c-4.997,0-9.063-4.065-9.063-9.063S984.965,561.209,989.962,561.209 M989.962,553.209c-9.424,0-17.063,7.64-17.063,17.063
			c0,9.424,7.639,17.063,17.063,17.063c9.423,0,17.062-7.639,17.062-17.063C1007.023,560.849,999.385,553.209,989.962,553.209
			L989.962,553.209z"/>
	</g>
	<g>
		<path fill="#448EA5" d="M930.962,561.209c4.997,0,9.062,4.065,9.062,9.063s-4.065,9.063-9.062,9.063
			c-4.997,0-9.063-4.065-9.063-9.063S925.965,561.209,930.962,561.209 M930.962,553.209c-9.424,0-17.063,7.64-17.063,17.063
			c0,9.424,7.639,17.063,17.063,17.063c9.423,0,17.062-7.639,17.062-17.063C948.023,560.849,940.385,553.209,930.962,553.209
			L930.962,553.209z"/>
	</g>
	<path fill="#53D5F4" d="M978,511h8.271c0,0,3.527-0.736,5.988,2.381l18.081,18.028c0,0,3.66,2.688,2.66,7.363v18.948l2.979-0.081
		c0,0,2.774,0.41,3.021,2.625v7.054c0,0,0,2.682-2.297,2.682h-9.762c0,0,0.316-11.41-11.742-15.512
		c-9.885-3.526-17.199,3.479-17.199,3.479V540h26v-2.212L986.024,519H978V511z"/>
</g>
</svg>
