<?xml version="1.0" encoding="utf-8"?>
<!-- Generator: Adobe Illustrator 16.0.3, SVG Export Plug-In . SVG Version: 6.00 Build 0)  -->
<!DOCTYPE svg PUBLIC "-//W3C//DTD SVG 1.1//EN" "http://www.w3.org/Graphics/SVG/1.1/DTD/svg11.dtd">
<svg version="1.1" id="Layer_1" xmlns="http://www.w3.org/2000/svg" xmlns:xlink="http://www.w3.org/1999/xlink" x="0px" y="0px"
	 width="438px" height="435px" viewBox="0 0 438 435" enable-background="new 0 0 438 435" xml:space="preserve">
<g>
	<defs>
		<rect id="SVGID_1_" x="-376" y="-203.89" width="1190.55" height="841.89"/>
	</defs>
	<clipPath id="SVGID_2_">
		<use xlink:href="#SVGID_1_"  overflow="visible"/>
	</clipPath>
	<path clip-path="url(#SVGID_2_)" fill="#EF413D" d="M434.139,302.842c0,71.157-57.684,128.84-128.84,128.84H133.515
		c-71.158,0-128.84-57.683-128.84-128.84V131.057c0-71.157,57.682-128.84,128.84-128.84h171.784
		c71.156,0,128.84,57.683,128.84,128.84V302.842z"/>
	<path clip-path="url(#SVGID_2_)" fill="#FFFFFF" d="M104.402,197.281c-6.672-5.665-9.442-6.924-18.758-6.924
		c-11.331,0-19.892,9.819-19.892,22.661c0,12.59,8.939,24.047,22.41,24.047c7.05,0,11.33-0.378,18.38-4.281l5.666,18.633
		c-8.435,3.777-14.352,6.043-27.446,6.043c-35.88,0-46.581-24.676-46.581-44.189c0-19.514,11.456-43.308,46.581-43.308
		c12.212,0,19.766,3.021,29.082,9.064L104.402,197.281z"/>
	<path clip-path="url(#SVGID_2_)" fill="#FFFFFF" d="M173.896,255.194l-5.666-16.619h-22.535l-6.044,16.619h-25.808l32.481-83.092
		h22.158l32.482,83.092H173.896z M157.53,202.569l-7.176,21.906h13.219L157.53,202.569z"/>
	<path clip-path="url(#SVGID_2_)" fill="#FFFFFF" d="M237.094,231.022c-2.139,0-4.278-0.251-6.42-0.756v24.928h-25.935v-83.092
		h34.748c17.751,0,32.858,8.058,32.858,28.453C272.345,223.342,255.349,231.022,237.094,231.022 M235.458,190.483h-4.784v22.536
		c1.259,0,5.036,0.252,5.036,0.252c5.162,0.251,10.198-3.777,10.198-12.465C245.908,192.875,240.872,190.483,235.458,190.483"/>
	<path clip-path="url(#SVGID_2_)" fill="#FAA61A" d="M317.287,255.319v24.299H297.9v-24.299h-37.643v-10.573l38.021-52.124h19.009
		v48.723h13.85v13.974H317.287z M297.9,218.055l-16.492,23.291H297.9V218.055z"/>
	<path clip-path="url(#SVGID_2_)" fill="#FAA61A" d="M365.885,257.083c-17.247,0-32.355-9.819-32.355-22.662
		c0-13.346,10.197-17.374,19.387-23.795c-11.203-6.798-15.988-12.967-15.988-22.157c0-12.464,14.604-21.025,31.225-21.025
		c15.232,0,29.08,8.813,29.08,20.017c0,9.443-4.155,13.723-16.115,22.284c8.059,5.917,19.515,11.205,19.515,23.92
		C400.632,245.626,389.426,257.083,365.885,257.083 M366.892,182.552c-5.288,0-8.687,2.643-8.687,7.176
		c0,4.028,5.161,7.805,8.813,9.819c4.029-2.643,8.184-6.672,8.184-9.568C375.201,185.195,371.801,182.552,366.892,182.552
		 M366.892,221.454c-4.407,4.154-8.309,6.924-8.309,11.204c0,4.407,2.392,9.066,8.183,9.066c6.422,0,8.309-4.659,8.309-9.948
		C375.074,227.874,370.92,225.104,366.892,221.454"/>
</g>
</svg>
