<?xml version="1.0" encoding="utf-8"?>
<!-- Generator: Adobe Illustrator 16.0.3, SVG Export Plug-In . SVG Version: 6.00 Build 0)  -->
<!DOCTYPE svg PUBLIC "-//W3C//DTD SVG 1.1//EN" "http://www.w3.org/Graphics/SVG/1.1/DTD/svg11.dtd">
<svg version="1.1" id="Layer_1" xmlns="http://www.w3.org/2000/svg" xmlns:xlink="http://www.w3.org/1999/xlink" x="0px" y="0px"
	 width="657.317px" height="123.171px" viewBox="0 0 657.317 123.171" enable-background="new 0 0 657.317 123.171"
	 xml:space="preserve">
<g>
	<polygon fill="#231F20" points="205.493,42.434 196.058,42.434 184.6,87.177 194.024,87.177 195.549,81.296 221.47,81.296 
		217.959,94.703 202.313,107.16 166.048,107.16 156.712,94.703 172.084,34.888 187.75,22.384 224.096,22.384 233.428,34.888 
		229.968,48.328 204.024,48.328 	"/>
	<path fill="#231F20" d="M251.038,80.707l-6.808,26.453h-25.903l21.817-84.775h48.854l9.312,12.504l-7.935,30.402L277.56,75.472
		l7.116,31.688h-27.67L251.038,80.707z M270.362,42.434h-9.435l-3.923,15.319h9.432L270.362,42.434z"/>
	<polygon fill="#231F20" points="325.795,42.434 322.589,54.808 357.961,54.808 352.739,74.824 317.385,74.824 314.186,87.177 
		349.528,87.177 344.313,107.16 295.567,107.16 286.273,94.703 301.849,34.888 317.557,22.384 366.411,22.384 361.178,42.434 	"/>
	<path fill="#231F20" d="M412.301,94.703l-15.709,12.457h-48.746l22.104-84.776h48.855l9.268,12.504L412.301,94.703z
		 M388.404,87.177l11.697-44.744h-9.437L378.98,87.177H388.404z"/>
	<polygon fill="#231F20" points="455.535,42.434 452.287,54.808 487.659,54.808 482.368,74.824 447.014,74.824 443.773,87.177 
		479.115,87.177 473.833,107.16 425.085,107.16 415.834,94.703 431.613,34.888 447.364,22.384 496.217,22.384 490.917,42.434 	"/>
	<polygon fill="#231F20" points="529.839,42.434 520.404,42.434 508.566,87.177 517.99,87.177 519.565,81.296 545.486,81.296 
		541.862,94.703 526.111,107.16 489.845,107.16 480.615,94.703 496.495,34.888 512.267,22.384 548.612,22.384 557.838,34.888 
		554.264,48.328 528.32,48.328 	"/>
	<path fill="#231F20" d="M606.643,94.703L590.87,107.16h-36.265l-9.209-12.457l15.98-59.815l15.911-12.504h36.229l9.203,12.504
		L606.643,94.703z M582.784,87.177l11.924-44.744h-9.435L573.36,87.177H582.784z"/>
	<polygon fill="#1479BD" points="143.272,107.16 108.317,107.16 131.774,22.383 164.199,22.383 	"/>
	<polygon fill="#E72237" points="99.578,107.16 83.94,107.16 107.397,22.383 123.035,22.383 	"/>
	<polygon fill="#E72237" points="77.616,107.16 61.978,107.16 85.435,22.383 101.073,22.383 	"/>
	<polygon fill="#FFD363" points="52.894,107.16 43.465,107.16 66.922,22.383 76.351,22.383 	"/>
	<polygon fill="#FFD363" points="36.873,107.16 27.444,107.16 50.901,22.383 60.33,22.383 	"/>
</g>
<g>
</g>
<g>
</g>
<g>
</g>
<g>
</g>
<g>
</g>
<g>
</g>
<g>
</g>
<g>
</g>
<g>
</g>
<g>
</g>
<g>
</g>
<g>
</g>
<g>
</g>
<g>
</g>
<g>
</g>
</svg>
