<?xml version="1.0" encoding="utf-8"?>
<!-- Generator: Adobe Illustrator 16.0.3, SVG Export Plug-In . SVG Version: 6.00 Build 0)  -->
<!DOCTYPE svg PUBLIC "-//W3C//DTD SVG 1.1//EN" "http://www.w3.org/Graphics/SVG/1.1/DTD/svg11.dtd">
<svg version="1.1" xmlns="http://www.w3.org/2000/svg" xmlns:xlink="http://www.w3.org/1999/xlink" x="0px" y="0px"
	 width="410.979px" height="508.475px" viewBox="0 0 410.979 508.475" enable-background="new 0 0 410.979 508.475"
	 xml:space="preserve">
<g>
	
		<path fill-rule="evenodd" clip-rule="evenodd" fill="#F9CA55" stroke="#000000" stroke-width="2.6689" stroke-miterlimit="2.6131" d="
		M317.076,429.135c-29.404,26.79-54.715,41.228-108.036,69.2c-49.633-22.574-82.03-44.825-110.125-66.746
		c-38.824-30.226-66.714-79.305-69.131-109.406l-19.371-286.5c131.218-34.111,270.787-33.333,391.52,2.29l-19.656,283.598
		C379.777,347.252,356.805,397.189,317.076,429.135L317.076,429.135z"/>
	
		<path fill-rule="evenodd" clip-rule="evenodd" fill="#F9CA55" stroke="#000000" stroke-width="2.6689" stroke-miterlimit="2.6131" d="
		M359.797,312.177l17.736-253.25C273.631,25.838,149.171,25.35,34.499,55.449l18.102,256.563
		c1.885,26.666,21.092,67.441,57.91,98.689c22.157,18.813,65.568,50.389,97.633,62.495c36.94-18.69,70.523-41.925,97.147-64.865
		C338.298,378.27,357.792,340.887,359.797,312.177L359.797,312.177z"/>
	
		<path fill-rule="evenodd" clip-rule="evenodd" fill="#F9CA55" stroke="#000000" stroke-width="2.6689" stroke-miterlimit="2.6131" d="
		M301.027,401.646c-25.512,22.006-59.873,46.667-92.885,62.414c-29.484-9.12-73.062-42.741-94.028-60.821
		c-36.573-31.572-51.44-64.619-53.69-95.866L42.646,62.468c109.187-28.671,228.361-28.671,327.39,2.864l-17.569,241.634
		C349.927,339.11,334.979,369.826,301.027,401.646L301.027,401.646z"/>
	
		<line fill="none" stroke="#000000" stroke-width="2.6689" stroke-miterlimit="2.6131" x1="50.81" y1="67.227" x2="54.331" y2="109.436"/>
	<path fill="none" stroke="#000000" stroke-width="2.6689" stroke-miterlimit="2.6131" d="M54.331,109.436
		c104.227-26.051,213.412-23.435,304.042,3.969"/>
	
		<line fill="none" stroke="#000000" stroke-width="2.6689" stroke-miterlimit="2.6131" x1="358.373" y1="113.404" x2="362.264" y2="70.458"/>
	<path fill="none" stroke="#000000" stroke-width="2.6689" stroke-miterlimit="2.6131" d="M362.264,70.458
		C268.355,41.667,154.341,40.112,50.81,67.227"/>
	<polygon fill-rule="evenodd" clip-rule="evenodd" points="309.998,82.892 286.492,79.009 285.588,90.049 277.931,88.905 
		279.734,59.62 287.555,60.765 286.735,72.013 310.57,75.858 311.351,64.609 319.336,66.125 316.918,95.489 309.139,94.056 
		309.998,82.892 	"/>
	<path fill-rule="evenodd" clip-rule="evenodd" d="M196.545,72.956c-2.865,0-5.16-0.777-6.675-3.312
		c-1.309-2.087-1.309-8.875,0-11.125c1.433-2.618,4.013-3.354,6.144-3.354l33.333,0.042l0.083,7.198l-31.532-0.042
		c-1.557,0-1.597,3.476,0.123,3.476h24.857c2.908,0,5.49,1.761,6.309,4.048c0.899,2.456,0.737,8.019,0,10.308
		c-0.696,2.292-3.319,3.558-6.595,3.558h-32.884l-0.042-7.361h29.283c2.456,0,2.456-3.437,0-3.437H196.545L196.545,72.956z"/>
	<path fill-rule="evenodd" clip-rule="evenodd" d="M177.261,75.883c-0.04-1.594-1.391-2.781-2.864-2.7l-22.118,1.597l0.451,10.958
		l-7.166,0.738l-1.516-28.916l32.929-2.454c4.259-0.324,6.757,2.861,6.96,5.522c0.248,3.148,0.369,7.198-2.088,8.876
		c2.047,1.512,2.579,3.762,2.62,6.912l0.083,7.4l-7.169,0.289L177.261,75.883L177.261,75.883z"/>
	<path fill-rule="evenodd" clip-rule="evenodd" fill="#F9CA55" d="M172.563,66.497c2.824-0.165,2.581-4.539,0-4.295l-21.051,1.595
		l0.246,4.007L172.563,66.497L172.563,66.497z"/>
	<path fill-rule="evenodd" clip-rule="evenodd" d="M103.598,62.656c6.759-1.594,20.601-3.802,27.85-4.338
		c3.315-0.241,5.897,1.476,6.348,4.053c1.066,5.93,1.722,12.063,0.983,20.288c-0.206,2.37-2.252,4.25-4.954,4.824
		c-9.297,2.045-19.742,3.149-27.482,3.886c-1.965,0.206-5.077-1.349-5.609-3.803C99.38,81.592,98.888,73.25,99.3,67.523
		C99.462,65.398,101.429,63.147,103.598,62.656L103.598,62.656z"/>
	<path fill-rule="evenodd" clip-rule="evenodd" fill="#F9CA55" d="M129.903,80.272c0.941-0.207,1.352-1.226,1.435-1.962
		c0.327-2.253,0.04-8.144-0.494-10.104c-0.161-0.776-0.817-1.269-2.291-1.146c-4.014,0.248-14.621,1.76-19.863,2.905
		c-1.392,0.328-1.926,1.145-2.006,1.882c-0.248,1.923,0.325,7.199,0.818,10.141c0.124,0.699,1.025,1.189,1.719,1.146
		C116.306,82.56,124.662,81.418,129.903,80.272L129.903,80.272z"/>
	<path fill-rule="evenodd" clip-rule="evenodd" d="M246.038,63.875c-1.557-0.04-2.62,0.901-2.742,1.72
		c-0.368,2.414-0.493,5.52-0.493,9.569c0,0.532,0.902,2.003,1.679,2.126c7.044,0.985,20.728,2.21,28.179,2.701l-0.45,7.564
		c-9.789-0.446-20.026-2.002-30.634-2.739c-3.48-0.247-6.018-2.126-6.144-5.479c-0.205-5.522,0.126-13.866,1.106-18.733
		c0.653-2.985,3.522-4.539,6.757-4.459c9.787,0.37,17.569,1.229,30.387,2.946l-0.489,7.527
		C266.968,66.086,255.171,64.243,246.038,63.875L246.038,63.875z"/>
	<path fill-rule="evenodd" clip-rule="evenodd" d="M85.779,66.07c9.911-2.332,11.426,15.256,3.152,17.3l-23.099,5.77l1.105,11.368
		l-7.248,1.921L57.11,72.817L85.779,66.07L85.779,66.07z"/>
	<path fill-rule="evenodd" clip-rule="evenodd" fill="#F9CA55" d="M85.658,77.59c2.374-0.532,2.048-4.785-0.494-4.253L64.32,78.367
		l0.49,4.375L85.658,77.59L85.658,77.59z"/>
	<polygon fill-rule="evenodd" clip-rule="evenodd" points="330.748,87.28 330.258,92.025 353.15,97.792 352.538,104.417 
		321.821,97.181 324.483,67.363 355.404,74.846 354.707,81.8 331.688,76.237 331.239,81.268 354.092,86.832 353.518,92.72 
		330.748,87.28 	"/>
	<polyline fill="none" stroke="#000000" stroke-width="2.6689" stroke-miterlimit="2.6131" points="144.835,217.208 
		144.835,192.386 144.863,181.916 144.876,176.844 203.727,176.802 203.689,96.393 	"/>
	<path fill="none" stroke="#000000" stroke-width="2.6689" stroke-miterlimit="2.6131" d="M203.689,96.393
		c-45.789,0-95.957,4.333-149.157,19.183"/>
	<polyline fill="none" stroke="#000000" stroke-width="2.6689" stroke-miterlimit="2.6131" points="54.532,115.576 65.506,266.616 
		144.835,266.616 144.835,237.089 144.835,217.208 	"/>
	<path fill-rule="evenodd" clip-rule="evenodd" d="M144.753,189.969c0-0.532-6.513-1.025-9.75-0.617
		c-8.599,1.023-30.1,7.772-39.191,14.03c-0.205,0.532-0.165,3.516-0.779,4.908c-0.532,1.267-1.882,2.577-3.191,3.149
		c-2.337,1.021-5.039-2.085-6.229-1.635c-1.229,0.447-3.85,1.514-6.676-0.493c-1.269-0.898-1.922-3.434-1.473-5.315
		c0.41-1.352,1.557-2.415,2.458-3.275c0.819-0.816,0.245-3.965,3.193-5.849c2.047-1.307,4.873-0.242,7.045,0.901
		c0.49-0.165,0.819-0.368,1.187-0.693c0.284-0.863,0.736-3.479,1.146-5.523c0.493-2.209,0.657-3.641,1.313-5.685
		c1.639-4.949,5.569-12.064,9.666-15.788c3.234-2.862,8.27-5.152,11.998-4.907c-0.37,0.571-4.996,4.703-6.351,6.546
		c-3.193,4.25-6.14,10.795-7.533,16.356c-0.493,1.882-0.493,2.578-0.164,3.806c3.03-1.352,6.96-2.66,9.255-3.396
		c0.901-2.003,1.392-4.295,2.171-6.134c1.228-2.864,2.009-4.09,3.276-6.093c3.645-5.646,11.344-11.207,17.037-11.085
		c-1.885,1.636-5.816,5.725-7.372,8.178c-1.269,2.047-2.457,4.255-3.359,6.544c-0.777,2.045-1.024,3.559-1.228,5.235
		c2.948-0.856,5.857-1.472,7.739-1.594c1.271-0.696,1.679-2.044,2.377-3.313c2.169-4.049,6.428-8.589,9.133-10.06
		c2.169-1.187,5.364-2.333,7.657-1.594c-2.458,1.839-5.037,4.781-6.183,6.542c-1.188,1.878-3.114,5.521-3.033,7.239
		c2.009,0.163,4.625,0.057,5.775-0.23L144.753,189.969l0.027-10.47L144.753,189.969L144.753,189.969z"/>
	<path fill-rule="evenodd" clip-rule="evenodd" d="M118.673,123.725c3.114-4.334,11.303-10.874,17.612-10.508
		c-3.44,2.985-6.472,6.296-8.602,9.813c-2.786,4.538-5.039,10.226-5.527,14.601c2.086-0.776,7-2.166,9.828-2.781
		c2.496-5.438,5.773-11.451,9.83-14.682c2.906-2.332,7.083-4.338,10.976-3.886c-0.902,1.269-2.376,2.25-3.482,3.273
		c-2.009,1.758-3.4,4.131-4.505,6.542c-0.818,1.799-2.212,7.199-2.254,7.445c2.827-0.04,7.823,0.284,8.886,0.612
		c3.32-4.336,10.569-10.633,19.251-9.201c-3.769,2.044-10.647,8.015-10.238,11.288c5.649,3.641,14.085,11.288,14.454,18.362
		c-3.849-4.007-10.197-7.975-13.391-9.077c-7.659-2.702-16.792-3.069-24.409-1.678c-15.889,2.985-29.937,9.857-43.411,17.917
		c-0.327,2.167-1.516,5.438-2.499,6.542c-0.981,1.104-2.457,2.168-4.054,2.415c-2.006,0.324-4.056-0.49-5.775-1.39
		c-1.106-0.615-4.014,0.163-5.855-0.822c-1.271-0.653-3.237-2.493-2.703-5.396c0.45-2.578,3.03-4.132,3.397-6.587
		c0.535-3.596,3.152-5.153,4.506-5.396c1.474-0.288,2.989,0.203,4.342,0.815c0.575,0.287,1.185,0.779,1.721,0.943
		c0.531-0.165,1.311-0.821,1.761-1.023c0.121-0.411,1.473-7.895,2.209-11.165c0.739-3.275,2.007-6.056,3.072-9.12
		c3.194-9.08,13.065-18.242,20.971-17.753c-0.413,0.575-2.95,2.415-6.473,6.504c-5.692,6.667-7.125,13.743-9.255,25.89
		c4.383-2.044,8.191-3.516,12.164-4.952c0.942-3.759,2.213-7.443,3.769-11C116.012,127.981,117.24,125.73,118.673,123.725
		L118.673,123.725z"/>
	<polygon fill-rule="evenodd" clip-rule="evenodd" fill="#EB2E2E" points="357.355,133.783 210.985,133.908 211.108,176.933 
		354.081,176.853 357.355,133.783 	"/>
	<path fill-rule="evenodd" clip-rule="evenodd" d="M244.623,326.239c-1.022,4.13-1.516,11.085-1.432,11.249
		c2.497-1.024,4.832-1.925,6.879-2.536c0.162-0.247,3.073-6.588,4.384-8.303c3.071-4.746,7.207-8.796,12.246-11.493
		c3.151-1.596,7.002-3.068,10.402-1.801c-4.465,2.126-7.946,5.972-10.035,8.18c-1.926,2.046-4.179,5.07-5.2,8.179
		c-0.164,0.534-0.329,1.638-0.329,1.638c2.09-0.654,8.765-1.638,11.55-2.006c0.327-0.041,1.188-1.882,1.842-2.781
		c0.818-1.104,1.311-1.799,2.621-3.271c3.359-3.64,9.052-7.525,14.579-6.668c-3.028,1.924-6.347,4.991-9.009,9.816
		c-0.367,0.738-0.86,1.762-0.654,2.209c0.818,0.165,4.875,0.083,7.332,0.37c2.823-1.76,5.815-3.315,9.048-4.007
		c3.646-0.822,8.396-0.166,10.281,1.55c-2.212-0.122-4.303,0.287-6.309,1.063c-1.145,0.452-3.439,1.515-4.301,2.988
		c2.173,0.611,5.735,2.944,7.986,4.826c1.556,1.308,3.441,3.188,4.629,4.908c2.992,4.047,3.603,11.326,2.008,13.494
		c-0.452-1.268-0.944-2.533-1.637-3.722c-1.435-2.413-3.691-5.03-5.614-6.46c-9.297-7.075-22.689-7.444-33.62-5.237
		c-9.382,1.925-26.297,5.44-37.353,13.293c0.286,1.394-0.576,3.721-1.843,4.622c-1.68,1.227-4.055-0.448-5.284,0.207
		c-1.68,0.858-3.766,0.325-4.626-0.042c-1.477-0.613-2.457-2.128-2.582-3.888c-0.122-1.39,1.228-3.066,1.515-4.579
		c0.127-0.615-0.529-3.642,2.05-5.194c0.49-0.287,1.964-0.816,2.989-0.654c1.022,0.203,1.843,0.857,2.866,1.022
		c1.557-0.573,2.909-1.227,3.976-1.924c0.817-3.147,1.431-6.789,1.84-10.021L244.623,326.239L244.623,326.239z"/>
	<path fill="none" stroke="#000000" stroke-width="2.6689" stroke-miterlimit="2.6131" d="M235.818,331.269
		c-7.33,3.642-16.914,6.097-25.065,6.422"/>
	
		<line fill="none" stroke="#000000" stroke-width="2.6689" stroke-miterlimit="2.6131" x1="210.753" y1="337.69" x2="210.796" y2="455.358"/>
	<path fill="none" stroke="#000000" stroke-width="2.6689" stroke-miterlimit="2.6131" d="M210.796,455.358
		c34.197-17.34,71.71-45.725,87.685-61.307c25.842-25.154,43.248-50.637,45.907-87.363"/>
	<polyline fill="none" stroke="#000000" stroke-width="2.6689" stroke-miterlimit="2.6131" points="344.388,306.688 
		346.805,273.232 269.114,273.152 	"/>
	<path fill="none" stroke="#000000" stroke-width="2.6689" stroke-miterlimit="2.6131" d="M269.114,273.152
		c0,18.975-6.308,38.63-24.52,52.997"/>
	
		<line fill="none" stroke="#000000" stroke-width="2.6689" stroke-miterlimit="2.6131" x1="244.595" y1="326.148" x2="235.818" y2="331.269"/>
	<path fill-rule="evenodd" clip-rule="evenodd" d="M246.038,369.771c1.229-1.879,2.704-4.624,3.441-5.808
		c2.579-4.131,6.307-7.197,8.85-8.383c3.479-1.678,9.09-2.66,11.585-1.435c-2.743,0.655-4.829,1.925-6.756,3.272
		c-1.967,1.349-5.816,4.868-6.8,6.34c-1.104,1.639-1.842,3.109-2.128,3.885c3.111-0.695,6.841-1.268,8.764-1.268
		c1.395-1.759,5.08-5.969,7.823-7.933c2.21-1.556,6.922-3.11,9.871-1.842c-2.827,0.9-7.824,4.825-9.668,7.647
		c-0.407,0.655-0.777,1.351-0.857,1.719c1.511,0.123,4.38,0.408,5.938,0.613c0.162,0,4.424-2.617,6.349-3.15
		c2.497-0.694,6.593-1.593,9.172,1.146c-1.883,0.04-3.645,0.204-5.035,0.82c-2.007,0.898-2.869,1.551-3.77,2.818
		c3.931,2.084,8.027,4.257,10.445,8.102c0.858,1.349,2.169,4.539,1.432,6.625c-1.229-1.557-2.909-3.067-4.26-3.848
		c-1.924-1.103-3.316-2.166-5.651-3.064c-7.331-2.74-16.914-3.478-24.574-2.455c-9.908,1.269-22.073,6.177-28.298,10.43
		c0.411,1.922-0.53,4.172-1.636,4.702c-2.337,1.188-4.588-0.817-4.997-0.694c-0.615,0.206-2.501,0.859-3.853,0.285
		c-1.35-0.53-2.209-2.903-1.677-4.416c0.408-1.146,2.048-2.781,2.048-2.781c-0.247-2.494,1.39-4.007,3.646-4.295
		c1.267-0.122,2.169,0.86,3.191,1.063c0.941-0.45,1.599-0.774,2.088-1.021c0.574-2.043,1.435-4.133,2.007-5.849
		c0.942-2.904,2.335-5.479,4.097-8.179c2.537-3.888,7.043-7.567,12.408-7.651c-1.637,1.269-2.58,1.964-3.604,3.233
		c-1.761,2.208-3.111,4.211-4.342,6.584c-1.104,2.086-2.128,5.195-2.293,7.935C240.962,371.979,243.992,370.59,246.038,369.771
		L246.038,369.771z"/>
	<path fill-rule="evenodd" clip-rule="evenodd" d="M245.246,391.896c1.393-0.573,2.865-0.982,4.342-0.818
		c-3.441,2.209-6.596,5.439-7.455,9.282c-0.081,0.412-0.081,1.228,0.289,1.474c0.98-0.246,3.479-0.778,4.135-1.103
		c0.411-0.86,1.434-2.209,2.129-3.108c2.457-3.274,5.981-6.545,10.853-5.316c-3.192,1.429-5.036,3.436-6.429,5.971
		c-0.245,0.451-0.409,1.307-0.084,1.307c0.818,0,3.934-0.123,4.385-0.123c1.431-1.268,5.609-3.682,8.478-2.78
		c-1.759,0.778-3.358,2.125-3.891,2.658c-0.287,0.326-0.657,0.738-0.738,1.228c2.54,1.268,4.792,2.701,6.882,4.5
		c1.105,0.94,2.702,2.699,3.685,5.725c-2.458-2.126-10.485-5.93-14.866-6.136c-2.866-0.119-6.429,0.411-8.23,0.821
		c-6.923,1.555-14.051,4.66-20.149,8.139c0.039,1.184-0.165,2.616-1.516,3.721c-0.901,0.734-2.868,1.103-3.604,0.039
		c-0.409-0.57-3.073,0.041-3.646-0.693c0,0-0.696-1.064-0.779-2.333c-0.08-1.349,0.817-2.166,1.558-2.862
		c0.204-0.246,0.165-2.533,1.882-3.313c1.067-0.49,2.134-0.325,3.034,0.245c0.367-0.204,0.654-0.409,0.898-0.57
		c0.206-2.659,0.696-5.115,1.681-7.771c1.35-3.764,5.772-8.346,9.583-8.181c-2.578,2.781-4.669,6.626-5.364,9.813
		c-0.205,1.023-0.287,3.028-0.287,3.97c0.654-0.409,1.802-1.024,2.866-1.431c0.41-0.981,1.595-3.437,2.212-4.542
		C238.653,396.844,242.133,393.164,245.246,391.896L245.246,391.896z"/>
	<path fill-rule="evenodd" clip-rule="evenodd" fill="#EB2E2E" d="M69.423,311.018c0.491,14.233,6.309,31.411,14.292,43.313h119.137
		l-0.245-16.605c-15.318,0-38.703-10.103-47.959-26.625L69.423,311.018L69.423,311.018z"/>
	<path fill="none" stroke="#000000" stroke-width="2.6689" stroke-miterlimit="2.6131" d="M151.325,273.9
		c0,75.664,110.818,75.664,110.818,0.777"/>
	<polyline fill="none" stroke="#000000" stroke-width="2.6689" stroke-miterlimit="2.6131" points="262.143,274.677 
		262.186,183.636 151.325,183.597 151.325,273.9 	"/>
	<path fill-rule="evenodd" clip-rule="evenodd" d="M187.025,237.638c1.311-1.431,2.459-3.314,2.705-4.91
		c0.204-1.308-3.482-1.225-4.833-0.407c-0.739,0.448-1.436,1.351-2.007,2.167c-0.408,0.613-1.882,1.104-2.62,0.41
		c-0.778-0.738,0.614-2.005,0.574-2.782c0-1.307-2.5,0.653-3.646,0.123c-0.777-0.369-0.818-1.552-0.286-2.248
		c0.286-0.371,1.105-0.206,1.474-0.615c0.369-0.408,0.369-1.021,0.493-1.554c0.164-0.615,0.818-0.9,1.229-1.349
		c1.555-1.513,4.504-4.089,5.077-4.05c1.35,0.125,3.276,0.818,4.463,0.203c0.246-0.118,0.697-0.527,0.287-0.774l-3.193-2.085
		c-0.043-0.656,0.245-1.307,0.734-1.758c1.477-1.308,3.771-0.41,5.696-0.696c1.35-0.207,2.623-0.738,3.603-1.678
		c0.246,0.981-0.37,1.964-0.37,2.988c1.231,1.145,2.5,2.125,3.688,3.23c3.521,3.519,5.037,8.629,5.282,13.128
		c0.204,2.086,0.204,4.214,0.204,7.69c0.574-1.472,0.942-3.641,1.065-5.521c0.531-5.563-0.328-10.51-3.479-14.726
		c-1.271-1.757-2.748-3.434-4.346-4.906c0.165-1.636,1.559-4.418,2.868-3.396c0.862,0.654-0.407,1.635,0.493,2.208
		c0.985,0.614,2.416,0.532,3.029,0.41c1.435-0.368,2.824-0.736,4.135-0.857c0.614-0.042,1.639-0.328,1.844,0.286
		c0.165,0.407-0.286,0.694-0.74,0.859c-0.528,0.163-1.348,0.041-1.801,0.491c-0.366,0.366-0.736,0.774-0.614,1.307
		c0.162,0.614,0.819,0.942,1.473,0.738c2.253-0.653,5.285-1.103,7.577-1.146c1.353,0,1.067,0.981,0.411,1.35
		c-0.449,0.245-1.146,0.449-1.598,0.49c-2.415,0.287-4.217,0.451-3.931,1.843c0.207,0.939,1.719,0.04,2.048,0.732
		c0.368,0.738-0.658,1.147-0.573,1.639c0.244,1.553,3.236,1.228,4.629,0.9c1.021-0.245,2.659-1.063,3.151-0.41
		c0.448,0.57,0.08,1.471-0.492,1.636c-1.475,0.409-4.014,1.145-4.708,1.963c-0.657,0.777,0.123,2.374,0.899,2.453
		c1.761,0.206,3.687,0.206,5.077,0.615c0.533,0.162,0.984,0.531,0.984,1.103c0,0.615-0.617,0.821-1.106,0.984
		c-0.944,0.287-2.538,0.287-3.4,0.653c-0.286,0.122-0.86,0.328-0.777,0.653c0.245,0.615,1.477,0.452,2.499,0.573
		c0.574,0.042,1.679,0.49,1.679,1.105c0,0.653-0.574,0.857-1.597,0.778c-1.598-0.125-3.071,0.079-3.767,0.366
		c-0.207,0.082-1.432,0.244-1.394,0.819c0.084,0.693,1.394,0.244,1.719,0.939c0.288,0.655-0.613,1.024-0.693,1.842
		c0,0.328,0.161,0.49,0.49,0.612c1.063,0.451,2.292,0.409,3.358,0.206c1.103-0.206,1.515,1.267,1.229,1.432
		c-1.434,0.776-4.629-0.042-5.364,0.406c-1.025,0.655,1.718,2.13,1.637,2.458c-0.083,0.366-0.411,0.732-0.656,0.817
		c-1.39,0.531-3.193-0.493-4.218,0.08c-0.86,0.532-0.49,1.881-1.025,2.579c-0.655,0.859-2.13,0.489-2.786,0.981
		c-0.856,0.611-0.898,2.083,0.043,2.984c0.738,0.693,1.434,1.183,2.375,1.635c4.262,2.125,8.683,4.253,12.818,3.967
		c2.132-0.122,5.61-0.246,7.538,0.247c2.497,0.612,5.034,2.535,6.346,3.353c1.064,0.653,2.787,0.818,4.137,0.328
		c0.985-0.328,1.639-1.474,1.435-2.455c-0.615-3.271-6.021-4.296-6.104-7.566c-0.081-3.76-0.407-5.804-1.637-8.181
		c-0.449-0.897-0.532-2.983,0.533-3.27c0.861-0.203,1.145,0.984,1.842,0.698c3.152-1.23,3.277-6.22,6.554-7.161
		c1.924-0.531,8.395-0.614,7.863-1.432c-1.352-1.922-0.738-4.13,0-5.152c0.489-0.653,1.843-1.31,2.375-0.653
		c0.735,0.857-1.105,1.878-0.982,3.148c0.123,1.186,1.842,3.475,0.531,4.704c-0.777,0.735-6.634,0.981-8.355,3.599
		c-1.063,1.595-1.185,2.862,0.083,2.74c1.024-0.121,1.886-1.349,2.824-2.046c1.681-1.225,3.031-1.718,3.976-0.818
		c0.489,0.45-0.165,1.31-1.064,1.554c-0.738,0.245-2.54,2.169-2.05,2.658c0.738,0.777,4.832-2.781,5.856-2.043
		c0.532,0.409-2.007,3.024-1.557,3.721c0.532,0.859,2.254-0.49,2.786,0.165c0.777,0.981-1.353,2.9-2.58,3.759
		c-0.941,0.615-0.573,2.905-1.927,3.599c-1.514,0.736-2.209,2.044-2.044,2.248c0.16,0.328,0.53,0.572,1.102,0.207
		c1.679-1.064,3.77-2.332,4.629-2.003c0.49,0.204-0.202,2.533-0.817,3.637c-0.616,1.108,2.497,0.493,2.046,1.432
		c-0.328,0.695-0.532,1.761-0.328,2.74c0.249,1.269-3.356,1.554-3.685,2.415c-0.367,0.983,0.368,1.227,0.738,1.269
		c2.169,0.325,1.884,2.33,1.021,3.19c-1.145,1.145-3.11,1.593-4.83,1.307c-1.476-0.245-4.792-0.858-6.757-2.331
		c-0.615-0.449-1.519-0.122-1.642,0.492c-0.122,0.694,0.616,1.961,0.942,3.026c0.452,1.595,0.208,3.6-0.326,5.155
		c-1.146,3.229-4.22,5.931-5.08,9.813c-0.205,1.022,0.084,2.291,0.492,3.273c0.902,2.125,2.213,4.131,3.687,5.931
		c0.205,0.572,0.489,1.227,0.245,1.759c-0.326,0.816-2.867,2.578-3.603,3.271c-2.336,2.168-4.341,4.988-4.794,8.057
		c-0.164,1.104-2.537,2.208-4.134,2.66c-1.188,0.323-2.416,0.653-3.4,1.43c-0.122,0.899,0.41,1.679,0.532,2.577
		c0.204,1.555-1.763,2.331-3.277,2.82c-0.693,0.248-1.431,0.452-2.254,0.452c-0.283,0-0.364-0.49-0.324-0.737
		c0.45-2.126,0.859-3.845,1.679-5.6c0.328-0.657,0.86-1.188,1.394-1.639l5.854-4.907l4.59-6.586
		c0.407-0.612,0.572-1.144,0.572-1.595c0-1.271-0.532-2.453-1.434-3.271c-1.147-1.024-2.827-1.188-4.095-1.842
		c-1.64-0.817-4.015-3.109-4.344-3.272c-0.899-0.45-1.432,1.185-1.554,2.127c-0.207,1.433,0.244,2.778,0.205,4.212
		c0,0.655-0.083,1.021-0.412,1.432c-3.847,2.209-8.639,3.026-11.467,6.546c-0.49,0.61-0.938,1.266-1.596,1.718
		c-1.597,1.102-4.255-0.165-5.446,1.552c-0.531,0.779,0.083,1.8-0.121,2.659c-0.124,0.492-1.064,1.146-1.801,1.514
		c-0.985,0.45-2.048,0.695-3.114,0.776c-1.187-0.572-0.449-2.248-0.042-3.437c0.412-1.226,0.985-2.452,1.927-3.271
		c1.394-1.226,3.151-2.78,4.26-3.315c0.939-0.448,2.371-0.448,3.516-0.896c1.188-0.37,2.338-0.899,3.401-1.638
		c1.679-1.063,3.237-2.372,4.177-4.173c1.065-2.044,0.942-4.784-0.408-6.542c-1.229-1.595-2.663-3.148-3.48-4.951
		c-0.453-0.979-0.125-2.331,0.573-3.229c-0.042-0.042-0.532-0.37-0.821-0.286c-5.855,0.244-11.792-0.408-17.238-2.577
		c-1.436-0.573-2.909-2.414-3.932-2.536c-0.94-0.124-1.516,1.062-2.458,1.308c-1.518,0.41-3.481,0.164-5.241,0
		c-2.049-0.205-6.309-1.105-9.379-2.088c-0.491,0.084-1.023,0.164-1.475,0.452c-0.653,0.45-0.777,1.431-0.819,2.25
		c-0.081,1.104,0.246,2.127,0.121,3.27c-0.038,0.574-0.365,1.188-0.202,1.72c0.164,0.655,0.818,0.941,1.269,1.35
		c0.738,0.694,0.86,2.127,0.86,3.271c0,1.269-0.449,2.945,0.615,3.805c0.656,0.531,1.554-0.164,2.375,0
		c0.901,0.162,1.187,1.268,1.228,2.127c0.042,0.98-0.776,3.066-1.311,3.598c-0.369,0.367-0.984,0.083-1.433-0.123
		c-1.186-0.531-2.292-1.388-2.947-2.534c-0.288-0.491-0.288-1.104-0.576-1.635c-0.451-0.901-1.27-1.433-2.088-2.047
		c-0.984-0.735-1.187-2.082-1.352-3.272c-0.123-1.104,0.083-2.168,0.165-3.27c0.203-2.169,0.082-4.379-0.411-6.545
		c-0.369-1.635-1.267-3.273-0.86-4.907c0.205-0.778,0.739-1.513,1.474-1.84c3.973-0.206,7.906-0.86,11.673-2.046l-2.456-2.413
		c-0.617,0-1.106,0.614-1.722,0.614c-0.655,0-1.556-0.939-1.801-1.269c-1.271-1.882-2.089-4.049-2.662-6.257
		c-0.534-0.86-1.188-1.719-2.172-2.126c-0.695-0.289-1.433-0.453-2.168-0.411c-2.05,0.898-3.934,2.66-4.097,4.91
		c-0.041,0.573,0.288,1.064,0.206,1.636c-0.123,0.981-0.86,1.635-1.556,2.33c-0.698,0.695-1.353,1.39-1.639,2.373
		c-0.246,0.817,0.041,1.677,0.407,2.454c0.248,0.532,0.533,1.062,0.331,1.635c-0.493,1.35-3.727,2.74-4.668,2.74
		c-0.328,0-0.617-0.448-0.739-0.816c-0.369-1.229-0.287-2.536-0.041-3.767c0.861-0.937,1.515-2.039,1.884-3.27
		c0.493-1.633,0.246-3.393,1.026-4.907c2.046-3.476,7.287-10.426,8.313-11.451c0.449-0.451,1.554-0.696,2.007-0.409
		c2.21,1.433,3.521,3.19,5.649,4.296c1.147,0.572,2.58,1.43,3.605,0.61c1.024-0.817,1.188-6.297,1.843-7.688
		C181.417,243.406,184.735,240.213,187.025,237.638L187.025,237.638z"/>
	<polygon fill-rule="evenodd" clip-rule="evenodd" points="227.791,203.569 226.892,207.005 223.613,207.005 227.874,190.889 
		231.598,190.889 235.696,206.884 232.421,206.884 231.598,203.569 227.791,203.569 	"/>
	<path fill-rule="evenodd" clip-rule="evenodd" d="M219.188,195.522c0.04-1.063-0.287-2.453-1.146-2.781
		c-0.902-0.328-1.846-0.042-2.252,0.573c-0.695,1.145-0.695,2.7-0.657,5.069c0,1.433,0.041,3.441,0.325,4.378
		c0.697,2.168,2.541,2.292,3.443,0.94c0.452-0.653,0.452-1.922,0.409-3.065h-1.886v-2.375h4.876v8.671h-2.336v-1.187
		c-0.038,0.083-1.063,0.858-1.556,1.106c-0.819,0.365-2.374,0.365-3.644-0.166c-1.067-0.448-2.089-1.88-2.54-3.719
		c-0.449-1.926-0.247-4.421-0.247-6.546c0.042-2.248,1.229-4.745,2.867-5.685c1.148-0.653,3.279-0.653,4.63-0.164
		c1.638,0.573,2.904,2.945,2.659,4.948H219.188L219.188,195.522z"/>
	<path fill-rule="evenodd" clip-rule="evenodd" d="M164.322,191.134c1.311,0.818,2.007,2.33,1.764,4.091h-2.583
		c0-1.635-0.696-2.415-2.087-2.453c-0.861-0.042-1.924,0.939-1.924,1.677c-0.043,2.163,1.884,2.618,3.193,3.024
		c0.983,0.289,2.17,0.9,2.746,1.759c1.064,1.553,1.187,3.19,0.327,5.319c-0.409,1.021-1.964,2.248-3.276,2.533
		c-1.474,0.328-3.276,0.165-4.75-0.94c-1.187-0.901-1.722-2.658-1.476-4.255h2.907c0,0.779,0.123,1.351,0.451,1.842
		c0.247,0.328,0.697,0.86,1.476,0.902c1.311,0.08,2.374-0.983,2.252-2.333c-0.164-2.495-4.342-2.658-5.775-4.255
		c-1.72-1.961-1.187-5.111,0.206-6.381C159.696,189.868,162.317,189.868,164.322,191.134L164.322,191.134z"/>
	<path fill-rule="evenodd" clip-rule="evenodd" d="M247.018,201.799c0.039,0.614,0.083,2.782,0.162,4.175
		c0.042,0.407,0.45,0.94,0.45,0.979h-3.072c-0.41,0-0.449-0.736-0.49-1.349c-0.08-1.636,0.08-5.521-1.515-5.521h-1.967v6.832h-3.073
		v-15.952h5.53c2.786,0,4.179,1.598,4.179,3.763c0,1.433-0.042,3.109-1.682,3.803C246.401,199.346,246.892,200.574,247.018,201.799
		L247.018,201.799z"/>
	<path fill-rule="evenodd" clip-rule="evenodd" fill="#F9CA55" d="M242.806,193.267h-2.296v4.297h1.679
		C244.976,197.564,244.936,193.267,242.806,193.267L242.806,193.267z"/>
	<polygon fill-rule="evenodd" clip-rule="evenodd" points="173.662,206.981 170.588,206.981 170.588,193.525 167.067,193.525 
		167.067,190.827 177.224,190.827 177.224,193.525 173.662,193.525 173.662,206.981 	"/>
	<polygon fill-rule="evenodd" clip-rule="evenodd" points="193.436,206.981 193.436,193.525 189.912,193.525 189.912,190.827 
		200.11,190.827 200.11,193.525 196.507,193.525 196.507,206.981 193.436,206.981 	"/>
	<polygon fill-rule="evenodd" clip-rule="evenodd" points="201.489,190.829 211.688,190.829 211.688,193.572 208.082,193.572 
		208.082,206.986 205.012,206.986 205.012,193.572 201.489,193.572 201.489,190.829 	"/>
	<polygon fill-rule="evenodd" clip-rule="evenodd" points="254.768,193.572 254.768,207.028 251.696,207.028 251.696,193.572 
		248.172,193.572 248.172,190.834 258.331,190.834 258.331,193.572 254.768,193.572 	"/>
	<path fill-rule="evenodd" clip-rule="evenodd" d="M185.258,202.35v-11.495h2.987v11.208c0,6.708-9.747,6.708-9.747,0.205v-11.413
		h2.989v11.536C181.488,204.887,185.258,204.887,185.258,202.35L185.258,202.35z"/>
	<path fill="none" stroke="#000000" stroke-width="2.6689" stroke-miterlimit="2.6131" d="M192.152,214.417
		c0.901-0.776,2.169-1.843,3.646-2.781c1.311-0.86-0.166,1.104-0.246,1.921c-0.247,2.209-1.924,2.454-3.769,2.045
		C191.457,215.521,191.582,214.907,192.152,214.417"/>
	<polygon fill-rule="evenodd" clip-rule="evenodd" fill="#EB2E2E" points="269.168,265.977 347.391,265.936 350.874,222.749 
		269.168,222.79 269.168,265.977 	"/>
	<path fill-rule="evenodd" clip-rule="evenodd" fill="#EB2E2E" d="M203.199,400.488l-80.681-0.162
		c16.626,14.926,55.125,42.863,80.436,54.191L203.199,400.488L203.199,400.488z"/>
	<path fill-rule="evenodd" clip-rule="evenodd" d="M144.835,230.172v6.917c-3.194-2.374-18.021-4.09-27.153-0.532
		c-2.21,0.856-9.418,3.966-12.695,6.543l-9.214,7.28c-0.902,0.734-0.982,2.332-0.982,3.56c0,2.696-3.154,4.741-4.915,4.168
		c-1.435-0.489-3.4-0.776-5.202-0.368c-1.925,0.411-3.645-2.005-3.808-3.393c-0.247-1.718,1.106-3.967,1.187-4.703
		c0.083-0.695-0.37-3.434,2.17-5.112c1.147-0.737,2.746-0.695,3.891-0.082c0.328,0.204,0.738,0.247,1.105,0.162
		c0.41-0.162,1.516-1.144,1.802-1.391c0.124-1.632-0.121-4.211,0.042-5.642c0.368-2.782,0.531-4.376,1.393-7.078
		c0.737-2.33,2.335-5.724,3.521-7.646c2.131-3.476,6.349-6.831,9.503-6.545c-1.23,1.636-1.638,2.495-2.54,4.173
		c-1.678,3.066-3.235,8.138-3.97,11.572c-0.494,2.209-0.74,3.928-0.616,6.26c2.416-1.8,4.956-3.272,6.635-4.214
		c0.777-4.048,2.375-8.425,4.094-11.655c2.048-3.886,7.577-8.099,11.181-7.771c-3.4,3.683-5.816,8.794-6.717,12.065
		c-0.369,1.308-0.819,2.82-0.614,3.639c1.35-0.734,4.138-1.472,5.488-1.593c0.901-2.251,2.128-4.952,3.153-6.543
		c3.194-4.908,8.23-7.896,11.101-7.771c-2.254,3.023-4.181,5.766-5.571,9.813c-0.412,1.187-0.615,2.454-0.615,3.069
		c1.76-0.289,4.503-0.289,5.61-0.289c2.984-2.681,2.689-3.413,5.98-5.928c2.049-1.596,5.855-3.766,6.756-3.931v4.835
		c-1.557,1.394-4.709,4.39-5.327,5.944C140.864,228.481,143.566,229.313,144.835,230.172L144.835,230.172z"/>
	<polygon fill-rule="evenodd" clip-rule="evenodd" fill="#F9CA55" points="231.147,200.643 229.674,194.179 228.283,200.643 
		231.147,200.643 	"/>
	<polygon fill-rule="evenodd" clip-rule="evenodd" points="353.647,181.139 269.465,181.176 269.465,218.447 351.068,218.545 
		353.546,182.611 353.647,181.139 	"/>
	<path fill-rule="evenodd" clip-rule="evenodd" d="M357.521,129.677l0.749-12.152c-52.832-16.302-101.674-21.187-147.459-21.187
		l-0.019,33.136L357.521,129.677L357.521,129.677z"/>
	<path fill-rule="evenodd" clip-rule="evenodd" d="M152.634,306.647c-5.721-10.565-7.98-22.168-7.98-33.528l-77.692,0.082
		l2.417,33.454L152.634,306.647L152.634,306.647z"/>
	<path fill-rule="evenodd" clip-rule="evenodd" d="M202.909,394.849l0.013-34.865l-116.264-0.127
		c7.549,12.045,17.24,23.114,28.546,34.12c0.311,0.305,0.632,0.615,0.96,0.93L202.909,394.849L202.909,394.849z"/>
</g>
</svg>
