<?xml version="1.0" encoding="utf-8"?>
<!-- Generator: Adobe Illustrator 16.0.3, SVG Export Plug-In . SVG Version: 6.00 Build 0)  -->
<!DOCTYPE svg PUBLIC "-//W3C//DTD SVG 1.1//EN" "http://www.w3.org/Graphics/SVG/1.1/DTD/svg11.dtd">
<svg version="1.1" id="Layer_1" xmlns="http://www.w3.org/2000/svg" xmlns:xlink="http://www.w3.org/1999/xlink" x="0px" y="0px"
	 width="277.5px" height="317px" viewBox="0 0 277.5 317" enable-background="new 0 0 277.5 317" xml:space="preserve">
<g>
	<defs>
		<rect id="SVGID_1_" x="-34" y="-36.092" width="356.602" height="394.092"/>
	</defs>
	<clipPath id="SVGID_2_">
		<use xlink:href="#SVGID_1_"  overflow="visible"/>
	</clipPath>
	<path clip-path="url(#SVGID_2_)" d="M73.45,151.001l200.386-70.568c0.139-2.475,0.195-4.947,0.181-7.411L73.446,143.654
		L73.45,151.001z"/>
	<path clip-path="url(#SVGID_2_)" d="M73.433,123.274l198.728-69.983c-0.431-2.291-0.937-4.563-1.524-6.809L73.429,115.933
		L73.433,123.274z"/>
	<path clip-path="url(#SVGID_2_)" d="M270.79,101.896l-197.328,69.49l0.002,3.59l0.001,3.749l195.241-68.755
		C269.482,107.296,270.178,104.604,270.79,101.896"/>
	<path clip-path="url(#SVGID_2_)" d="M263.882,28.473c-1.418-2.818-2.992-5.568-4.729-8.238
		c-9.158-14.08-30.491-21.758-47.747-15.68L73.392,53.666l0.025,41.882L263.882,28.473z"/>
	<path clip-path="url(#SVGID_2_)" d="M73.468,199.113l0.021,114.496l70.438-24.896l12.312-43.622l11.406-43.571l33.207-11.713
		c24.891-8.767,45.651-30.156,58.626-56.2L73.468,199.113z"/>
	<path clip-path="url(#SVGID_2_)" d="M26.324,102.68l-0.005-5.747c0-1.268-0.786-2.67-2.352-4.211l-0.553-0.392l-0.326-0.197
		c-1.336-0.821-2.286-0.624-2.847,0.586l-0.056,0.508l0.003,5.697L26.324,102.68z"/>
	<path clip-path="url(#SVGID_2_)" d="M24.421,129.447l8.271,5.067c1.882,1.152,3.231,0.935,4.052-0.667l0.164-1.033
		c0-1.816-0.968-3.766-2.905-5.848c-0.468-0.429-0.904-0.773-1.316-1.025l-8.271-5.065c-1.879-1.15-3.234-0.928-4.052,0.664
		l-0.164,1.041c0.002,1.819,0.97,3.766,2.907,5.845C23.561,128.848,24.002,129.192,24.421,129.447"/>
	<path clip-path="url(#SVGID_2_)" d="M26.395,242.391v-5.747c0-1.271-0.786-2.673-2.357-4.211l-0.548-0.392l-0.328-0.202
		c-1.334-0.813-2.284-0.619-2.85,0.589l-0.053,0.507l0.002,5.697L26.395,242.391z"/>
	<path clip-path="url(#SVGID_2_)" d="M23.941,260.249l-0.818-0.505c-1.059-0.647-1.92-0.555-2.577,0.27
		c-0.182,0.242-0.273,0.783-0.271,1.624v4.934l6.192,3.792l-0.002-5.585C26.462,263.322,25.622,261.813,23.941,260.249"/>
	<path clip-path="url(#SVGID_2_)" d="M54.016,53.191L5.015,22.607L3.438,281.545l50.825,32.393L54.016,53.191z M41.229,218.875
		l-0.003,0.763c0.003,2.382-1.129,3.842-3.39,4.373c-1.647,0.149-3.271-0.266-4.878-1.251l-8.711-5.335
		c-2.407-1.476-4.582-3.928-6.517-7.356c-1.17-2.35-1.758-4.322-1.761-5.906l0.003-0.758c-0.003-2.385,1.129-3.841,3.392-4.37
		c1.645-0.151,3.272,0.263,4.873,1.245l8.711,5.338c2.412,1.478,4.585,3.931,6.522,7.354
		C40.643,215.328,41.224,217.293,41.229,218.875 M41.211,191.587c0.002,2.91-1.22,4.547-3.663,4.916
		c-0.988,0.007-1.756-0.157-2.304-0.493l-0.111-0.068c-1.074-0.656-1.771-1.718-2.079-3.17l-0.003-0.275
		c0-0.987,0.695-1.326,2.082-1.003c1.205-0.221,1.806-1.147,1.806-2.794c-0.002-1.936-0.77-3.8-2.304-5.585l-0.545-0.445
		l-0.331-0.204c-1.334-0.814-2.408,0.318-3.229,3.387c-0.839,2.466-1.859,3.883-3.064,4.255c-1.195,0.175-2.42-0.127-3.671-0.89
		l-0.768-0.472c-1.935-1.186-3.688-3.234-5.259-6.154c-1.205-2.397-1.812-4.544-1.812-6.424v-0.594c0-2.913,1.223-4.548,3.669-4.911
		c0.985-0.013,1.748,0.151,2.301,0.487l0.106,0.065c1.152,0.705,1.844,1.82,2.084,3.338v0.108c0.003,0.996-0.695,1.332-2.082,1.001
		c-1.205,0.222-1.806,1.156-1.801,2.804c0,1.932,0.768,3.794,2.299,5.583l0.551,0.444l0.326,0.199
		c1.336,0.818,2.41-0.311,3.231-3.39c0.811-2.431,1.831-3.845,3.064-4.249c1.195-0.172,2.42,0.123,3.671,0.891l0.768,0.471
		c1.914,1.172,3.668,3.224,5.257,6.148c1.205,2.405,1.811,4.545,1.811,6.428V191.587z M41.198,170.099
		c0,0.814-0.578,1.071-1.748,0.771l-21.639-13.256c-0.824-0.502-1.443-1.462-1.867-2.879l-0.003-8.461
		c-0.002-1.998,0.985-3.238,2.956-3.723c1.432-0.063,2.784,0.295,4.054,1.073l0.655,0.402c2.402,1.47,4.449,3.939,6.141,7.397
		c0.654,1.579,0.985,3.117,0.988,4.62v5.204l7.616,4.666c1.463,0.894,2.337,1.849,2.633,2.856c0.08,0.051,0.151,0.312,0.219,0.786
		L41.198,170.099z M17.649,56.579l0.49,0.306c0.894,0.546,1.536,1.427,1.92,2.64l0.109,0.502v4.5l18.133,11.107
		c1.463,0.892,2.342,1.847,2.632,2.855c0.081,0.048,0.157,0.313,0.22,0.785v0.541c0,0.814-0.584,1.076-1.753,0.773l-1.097-0.614
		l-18.13-11.105l0.002,4.499c0,0.831-0.566,1.117-1.7,0.859l-0.71-0.439c-0.821-0.498-1.445-1.46-1.867-2.875l-0.005-13.561
		C15.893,56.539,16.477,56.284,17.649,56.579 M15.858,90.355c-0.002-2.052,1-3.279,3.009-3.686c1.369-0.099,2.703,0.247,3.999,1.041
		l0.765,0.467c1.983,1.215,3.81,3.274,5.482,6.179l0.548,1.15c5.697,1.139,8.723,1.783,9.092,1.934l0.495,0.304
		c0.839,0.512,1.478,1.465,1.915,2.854v0.543c0,1.12-0.93,1.362-2.789,0.733l-7.723-1.533v4.989l7.725,4.731
		c1.405,0.862,2.287,1.837,2.628,2.913l0.164,0.753l0.002,0.432c0,0.849-0.583,1.126-1.75,0.826l-21.695-13.288
		c-0.821-0.502-1.443-1.462-1.865-2.88L15.858,90.355z M15.926,119.583c0-2.385,1.132-3.843,3.395-4.376
		c1.645-0.151,3.269,0.265,4.873,1.251l8.711,5.335c2.41,1.475,4.585,3.928,6.522,7.356c1.17,2.355,1.754,4.32,1.754,5.902v0.76
		c0.002,2.39-1.13,3.845-3.39,4.375c-1.645,0.149-3.269-0.265-4.879-1.253l-8.707-5.33c-2.41-1.478-4.586-3.931-6.521-7.359
		c-1.172-2.352-1.758-4.319-1.758-5.901V119.583z M15.931,230.065c0-2.051,1.003-3.278,3.009-3.686
		c1.372-0.101,2.705,0.245,3.999,1.038l0.765,0.473c1.983,1.212,3.81,3.27,5.482,6.174l0.548,1.149
		c5.699,1.14,8.726,1.786,9.092,1.933l0.493,0.306c0.843,0.516,1.48,1.466,1.92,2.857l-0.003,0.543
		c0.003,1.119-0.929,1.359-2.791,0.728l-7.72-1.525v4.984l7.725,4.73c1.404,0.864,2.284,1.837,2.629,2.916l0.167,0.752v0.436
		c-0.002,0.846-0.583,1.124-1.753,0.817l-21.695-13.281c-0.821-0.507-1.442-1.464-1.862-2.881L15.931,230.065z M41.259,281.868
		c0,0.813-0.581,1.068-1.751,0.766l-21.639-13.253c-0.821-0.5-1.445-1.462-1.867-2.877l-0.005-8.466c0-1.995,0.99-3.236,2.958-3.722
		c1.432-0.06,2.787,0.3,4.055,1.077l0.657,0.406c2.399,1.466,4.448,3.931,6.138,7.392c0.657,1.576,0.985,3.112,0.988,4.615
		l0.002,5.207l7.614,4.668c1.461,0.889,2.34,1.844,2.63,2.855c0.083,0.05,0.157,0.313,0.22,0.786V281.868z"/>
	<path clip-path="url(#SVGID_2_)" d="M32.733,209.768l-8.273-5.064c-1.88-1.15-3.231-0.931-4.05,0.658l-0.164,1.045
		c0,1.817,0.968,3.766,2.905,5.845c0.455,0.422,0.897,0.765,1.314,1.021l8.273,5.07c1.882,1.152,3.231,0.929,4.05-0.665l0.164-1.038
		c0-1.813-0.968-3.766-2.903-5.846C33.582,210.361,33.142,210.018,32.733,209.768"/>
	<path clip-path="url(#SVGID_2_)" d="M23.881,148.484l-0.818-0.505c-1.059-0.652-1.918-0.558-2.575,0.268
		c-0.181,0.242-0.275,0.78-0.273,1.622l0.003,4.936l6.192,3.791l-0.005-5.587C26.405,151.557,25.561,150.045,23.881,148.484"/>
</g>
</svg>
