<?xml version="1.0" encoding="utf-8"?>
<!-- Generator: Adobe Illustrator 16.0.3, SVG Export Plug-In . SVG Version: 6.00 Build 0)  -->
<!DOCTYPE svg PUBLIC "-//W3C//DTD SVG 1.1//EN" "http://www.w3.org/Graphics/SVG/1.1/DTD/svg11.dtd">
<svg version="1.1" id="Logo_FINAL" xmlns="http://www.w3.org/2000/svg" xmlns:xlink="http://www.w3.org/1999/xlink" x="0px" y="0px"
	 width="569px" height="458px" viewBox="0 0 569 458" enable-background="new 0 0 569 458" xml:space="preserve">
<g>
	<g>
		<g>
			<g>
				<g>
					<path fill="#ED1C24" d="M403.04,388.652v24.19h-76.955v-6.718c0-10.469,1.674-17.473,14.028-17.473H403.04z M335.372,373.727
						c-20.248,0-29.534,10.767-29.534,27.957v48.499h20.247v-22.323h76.955v22.323h20.251v-76.456H335.372z M448.092,373.727v14.926
						h47.515v61.53h20.248v-61.53h47.613v-14.926H448.092z M176.135,420.739c0,10.68,2.171,14.525,14.025,14.525h84.368v14.918
						h-89.115c-20.234,0-29.642-9.097-29.642-26.276v-50.18h118.757v14.926h-98.394v15.008h94.436v14.617h-94.436V420.739z
						 M31.527,400.297c-6.228-0.493-7.32-2.659-7.32-6.417c0-3.456,1.878-5.44,6.619-5.44h93.155v-14.713H28.464
						c-13.64,0-22.922,5.244-22.922,20.452c0,15.31,7.01,20.45,22.518,21.73l75.572,6.32c5.83,0.496,7.408,2.468,7.408,6.611
						c0,3.96-1.782,6.424-6.918,6.424H9.299v14.918h96.508c16.596,0,23.903-6.626,23.903-22.323
						c0-14.317-6.626-19.954-22.815-21.337L31.527,400.297z"/>
				</g>
			</g>
		</g>
		<g>
			<g>
				<g>
					<path fill="#FFFFFF" d="M447.219,174.948l-325.276-57.812c0,0,0.91-36.448,1.566-55.704
						c0.656-19.281,4.707-31.02,12.668-38.082c10.984-9.745,23.79-12.073,54.364-13.737c70.852-3.852,142.972-3.318,233.354,3.004
						c9.398,0.662,12.957,2.428,14.813,3.701c3.996,2.74,4.508,5.813,5.57,21.854c0.859,12.938,2.941,56.309,2.941,56.309
						S340.53,90.58,288.022,90.58c-14.751,0-26.653,0.09-36.378,0.281c-6.488,0.123-9.52,0.729-12.021,1.922l207.596,35.348V174.948
						z"/>
				</g>
				<g>
					<path fill="#FFFFFF" d="M121.753,129.516l325.267,57.812c0,0-0.906,36.439-1.563,55.703
						c-0.652,19.279-4.711,31.014-12.672,38.082c-10.977,9.744-23.785,12.07-54.356,13.734c-70.852,3.852-142.97,3.32-233.354-3.01
						c-9.406-0.656-12.961-2.428-14.816-3.693c-3.998-2.742-4.504-5.82-5.566-21.854c-0.859-12.939-2.939-56.307-2.939-56.307
						s106.687,3.9,159.187,3.9c14.751,0,26.657-0.088,36.38-0.279c6.492-0.123,9.527-0.729,12.02-1.926l-207.586-35.346V129.516z"/>
				</g>
			</g>
			<g id="did_2_">
				<g>
					<path d="M447.219,174.948l-325.276-57.812c0,0,0.91-36.448,1.566-55.704c0.656-19.281,4.707-31.02,12.668-38.082
						c10.984-9.745,23.79-12.073,54.364-13.737c70.852-3.852,142.972-3.318,233.354,3.004c9.398,0.662,12.957,2.428,14.813,3.701
						c3.996,2.74,4.508,5.813,5.57,21.854c0.859,12.938,2.941,56.309,2.941,56.309S340.53,90.58,288.022,90.58
						c-14.751,0-26.653,0.09-36.378,0.281c-6.488,0.123-9.52,0.729-12.021,1.922l207.596,35.348V174.948z M121.753,129.516
						l325.267,57.812c0,0-0.906,36.439-1.563,55.703c-0.652,19.279-4.711,31.014-12.672,38.082
						c-10.977,9.744-23.785,12.07-54.356,13.734c-70.852,3.852-142.97,3.32-233.354-3.01c-9.406-0.656-12.961-2.428-14.816-3.693
						c-3.998-2.742-4.504-5.82-5.566-21.854c-0.859-12.939-2.939-56.307-2.939-56.307s106.687,3.9,159.187,3.9
						c14.751,0,26.657-0.088,36.38-0.279c6.492-0.123,9.527-0.729,12.02-1.926l-207.586-35.346V129.516z M125.173,133.602v39.839
						l211.533,36.023c0,0-2.938,3.91-5.887,5.307c-2.953,1.395-6.828,2.129-13.43,2.26c-9.75,0.184-21.676,0.273-36.45,0.273
						c-46.434,0-136.235-3.082-155.587-3.768c0.521,10.787,2.051,41.99,2.754,52.523c1.059,15.963,1.586,17.543,4.092,19.258
						c0.881,0.6,3.553,2.439,13.111,3.105c52.185,3.656,99.187,5.428,143.701,5.428c30.023,0,59.219-0.791,89.227-2.424
						c29.696-1.613,42.06-3.805,52.278-12.883c7.254-6.436,10.914-17.752,11.52-35.631c0.539-15.844,1.258-43.674,1.488-52.732
						L125.173,133.602z M443.793,170.862v-39.845l-211.535-36.02c0,0,2.941-3.914,5.891-5.305c2.949-1.395,6.824-2.129,13.434-2.258
						c9.742-0.186,21.67-0.275,36.44-0.275c46.438,0,136.239,3.084,155.595,3.768c-0.527-10.786-2.059-41.991-2.758-52.532
						c-1.059-15.956-1.586-17.536-4.094-19.25c-0.871-0.605-3.551-2.439-13.113-3.105c-52.181-3.656-99.185-5.434-143.689-5.434
						c-30.035,0-59.227,0.797-89.234,2.428c-29.691,1.615-42.056,3.801-52.278,12.877c-7.258,6.441-10.91,17.76-11.523,35.641
						c-0.539,15.842-1.254,43.667-1.484,52.731L443.793,170.862z"/>
					<path fill="#FFFFFF" d="M293.003,230.972c-1.875,0-11.36-0.018-13.407-0.018c-43.174,0-89.457-0.301-146.024-3.424
						l-8.219-13.994l2.168,0.078l9.379,10.832c48.845,2.686,93.626,3.318,142.696,3.318c2.047,0,11.313,0.018,13.407,0.018
						c6.949,0,15.023-0.029,22.203-0.264c24.77-0.807,32.277-3.381,49.281-20.574l6.137-0.555l-2.527,2.605
						c-18.305,18.865-25.816,20.832-52.789,21.709C308.089,230.944,299.979,230.972,293.003,230.972L293.003,230.972z"/>
					<polygon fill="#FFFFFF" points="443.523,190.181 125.173,133.602 125.173,135.631 130.724,138.469 130.778,164.632 
						125.173,170.839 125.173,173.44 133.833,166.298 133.829,137.162 438.91,191.384 					"/>
					
						<radialGradient id="SVGID_1_" cx="273.7217" cy="282.3682" r="164.7187" gradientTransform="matrix(0.9637 0.2671 -0.1683 0.6071 57.4671 37.8154)" gradientUnits="userSpaceOnUse">
						<stop  offset="0.3301" style="stop-color:#7B7C7F"/>
						<stop  offset="0.6198" style="stop-color:#989A9D"/>
						<stop  offset="0.7979" style="stop-color:#A7A9AC"/>
						<stop  offset="1" style="stop-color:#D1D3D4"/>
					</radialGradient>
					<path fill="url(#SVGID_1_)" d="M435.602,190.784c-0.203,5.281-0.434,12.01-0.641,18.098c-0.172,5.199-0.324,9.689-0.504,13.883
						c-0.242,5.652-0.488,11.379-0.801,19.127c-0.801,19.814-5.309,26.098-13.902,31.328c-8.188,4.988-17.801,5.68-46.978,7.131
						c-29.602,1.463-61.23,2.32-94.017,2.545c-2.5,0.016-5.012,0.021-7.461,0.021c-38.441,0-73.48-2.129-117.558-5.572
						c-7.494-0.582-12.256-1.199-14.412-2.623c-2.32-1.531-2.943-1.939-3.551-11.369c-0.088-1.424-0.18-2.719-0.256-3.959
						c-0.236-3.609-0.539-6.799-0.713-11.588c-0.18-4.91-0.527-9.686-1.238-20.275l-2.902-4.945
						c0.615,11.27,1.02,20.922,1.188,25.916c0.152,4.537,0.25,7.529,0.48,11.096l0.035,0.438c0.074,1.109,0.145,2.266,0.223,3.525
						c0.613,9.463,1.313,11.404,4.979,13.824c2.744,1.811,7.709,2.506,15.924,3.146c44.157,3.441,79.271,5.578,117.802,5.578
						c2.457,0,4.973-0.008,7.484-0.023c32.833-0.229,64.513-1.088,94.153-2.557c29.786-1.475,39.63-2.197,48.478-7.586
						c9.559-5.818,14.566-12.662,15.434-33.916c0.301-7.602,0.547-13.258,0.781-18.803l0.02-0.324
						c0.375-8.92,0.758-18.436,1.262-31.525L435.602,190.784z"/>
					<g>
						<linearGradient id="SVGID_2_" gradientUnits="userSpaceOnUse" x1="233.584" y1="85.5469" x2="435.2603" y2="85.5469">
							<stop  offset="0" style="stop-color:#4D4D4F"/>
							<stop  offset="0.3168" style="stop-color:#545456"/>
							<stop  offset="0.454" style="stop-color:#58595B"/>
							<stop  offset="0.7429" style="stop-color:#2E2D2E"/>
							<stop  offset="0.9069" style="stop-color:#000000"/>
						</linearGradient>
						<path fill="url(#SVGID_2_)" d="M435.746,81.384l0.047,0.068l-1.336-0.068C388.003,79.105,340.542,79.4,287.08,79.4
							c-3.352,0-7.613,0.029-12.227,0.08c-14.096,0.152-25.043,0.24-31.484,1.4c-14.09,2.535-13.365,9.834-8.078,10.827
							c0.879-0.791,1.865-1.547,2.857-2.014c2.949-1.395,6.824-2.129,13.434-2.258c9.742-0.186,21.67-0.275,36.44-0.275
							c45.26,0,131.712,2.926,153.985,3.711C440.32,88.314,436.508,82.546,435.746,81.384z"/>
					</g>
					<path fill="#FFFFFF" d="M429.418,33.441l1.805-2.629c0.012,0.006-0.5-0.342-0.5-0.342c-2.324-1.598-7.195-2.602-15.336-3.174
						c-41.583-2.91-87.708-4.721-120.368-4.721c-2.242,0-4.43,0.006-6.551,0.023c-6.86,0.045-13.384,0.084-19.603,0.123
						c-31.377,0.189-55.977,0.516-74.059,1.496c-1.539,0.084-3.039,0.164-4.496,0.242c-25.787,1.379-38.731,2.068-48.856,11.055
						c-6.836,6.07-9.621,14.307-10.271,30.387l-0.314,7.709c-0.492,12.164-0.734,19.829-1.25,36.11
						c-0.879,0.414-3.297,1.547-4.109,1.928l-0.066,2.635l7.355-3.027l0.096-3.689c0.441-14.193,0.711-22.76,1.166-33.829
						l0.309-7.713c0.609-15.088,3.105-22.713,9.203-28.121c9.297-8.252,21.866-8.926,46.915-10.26
						c1.457-0.078,2.953-0.156,4.488-0.24c18.025-0.982,42.58-1.307,73.914-1.498c6.211-0.033,12.742-0.072,19.599-0.123
						c2.121-0.012,4.297-0.018,6.531-0.018c32.586,0,78.621,1.807,120.142,4.715c7.344,0.512,11.977,1.391,13.758,2.619l0.504,0.342
						C429.422,33.441,429.422,33.441,429.418,33.441z"/>
					<linearGradient id="SVGID_3_" gradientUnits="userSpaceOnUse" x1="150.8579" y1="105.9697" x2="133.0357" y2="26.3266">
						<stop  offset="0" style="stop-color:#939598"/>
						<stop  offset="0.5625" style="stop-color:#A1A3A6"/>
						<stop  offset="1" style="stop-color:#A7A9AC"/>
					</linearGradient>
					<path fill="url(#SVGID_3_)" d="M130.868,73.611l0.314-7.709c0.65-16.08,3.436-24.316,10.271-30.387
						c1.496-1.324,3.059-2.467,4.707-3.465c-1.48-2.977-1.945-5.797-0.873-7.938c0.865-1.721,4.451-4.688,12.197-7.479
						c-8.184,1.883-13.887,4.703-19.035,9.278c-7.258,6.441-10.91,17.76-11.523,35.641c-0.492,14.52-1.137,39.108-1.418,50.09
						c0.602-0.273,3.066-1.43,4.109-1.922C130.134,93.439,130.376,85.775,130.868,73.611z"/>
					<linearGradient id="SVGID_4_" gradientUnits="userSpaceOnUse" x1="146.1763" y1="23.293" x2="440.8165" y2="23.293">
						<stop  offset="0.0567" style="stop-color:#BFBFBF"/>
						<stop  offset="0.2789" style="stop-color:#BCBCBC"/>
						<stop  offset="0.442" style="stop-color:#B3B3B3"/>
						<stop  offset="0.5862" style="stop-color:#A3A3A3"/>
						<stop  offset="0.7194" style="stop-color:#8C8C8C"/>
						<stop  offset="0.8452" style="stop-color:#6F6F6F"/>
						<stop  offset="0.9637" style="stop-color:#4C4C4C"/>
						<stop  offset="1" style="stop-color:#404040"/>
					</linearGradient>
					<path fill="url(#SVGID_4_)" d="M432.676,32.107c2.055-3.178,5.18-3.275,8.016,3.873c-0.953-13.702-1.555-15.209-3.926-16.834
						c-0.871-0.605-3.551-2.439-13.113-3.105c-52.181-3.656-99.185-5.434-143.689-5.434c-30.035,0-59.227,0.797-89.234,2.428
						c-14.73,0.803-25.189,1.744-33.243,3.6c-7.746,2.791-11.332,5.758-12.197,7.479c-1.072,2.141-0.607,4.961,0.873,7.938
						c9.525-5.734,22.175-6.412,44.149-7.59c1.457-0.078,2.957-0.158,4.496-0.242c18.082-0.98,42.682-1.307,74.059-1.496
						c6.219-0.039,12.742-0.078,19.603-0.123c2.121-0.018,4.309-0.023,6.551-0.023c32.66,0,78.785,1.811,120.368,4.721
						c8.141,0.572,13.012,1.576,15.336,3.174c0,0,0.512,0.348,0.5,0.342C431.789,31.232,432.262,31.652,432.676,32.107z"/>
					<linearGradient id="SVGID_5_" gradientUnits="userSpaceOnUse" x1="436.5176" y1="32.5669" x2="436.5176" y2="89.5692">
						<stop  offset="0.0061" style="stop-color:#FFFFFF"/>
						<stop  offset="0.1166" style="stop-color:#CCCCCC"/>
						<stop  offset="0.495" style="stop-color:#CACACA"/>
						<stop  offset="0.6313" style="stop-color:#C3C3C3"/>
						<stop  offset="0.7284" style="stop-color:#B8B8B8"/>
						<stop  offset="0.807" style="stop-color:#A7A7A7"/>
						<stop  offset="0.8742" style="stop-color:#919191"/>
						<stop  offset="0.9338" style="stop-color:#757575"/>
						<stop  offset="0.9863" style="stop-color:#565656"/>
						<stop  offset="1" style="stop-color:#4D4D4D"/>
					</linearGradient>
					<path fill="url(#SVGID_5_)" d="M443.516,88.877l-6.273-10.614c-0.117-8.617-0.852-26.445-1.547-33.828
						c-0.672-7.076-0.969-10.063-3.02-12.328c-0.414-0.455-0.887-0.875-1.453-1.295l-1.805,2.629
						c2.012,1.502,2.305,2.826,3.105,11.291c0.723,7.697,1.883,27.096,1.973,34.76l7.512,11.379l1.609,0.057L443.516,88.877z"/>
					<path d="M440.691,35.98c-2.836-7.148-5.961-7.051-8.016-3.873c2.051,2.266,2.348,5.252,3.02,12.328
						c0.695,7.383,1.43,25.211,1.547,33.828l6.273,10.614c-0.598-12.245-1.992-40.545-2.656-50.481"/>
					<radialGradient id="SVGID_6_" cx="432.2764" cy="282.9434" r="392.9328" gradientUnits="userSpaceOnUse">
						<stop  offset="0.1417" style="stop-color:#808285"/>
						<stop  offset="0.3057" style="stop-color:#999B9E"/>
						<stop  offset="0.4874" style="stop-color:#B2B4B7"/>
						<stop  offset="0.5888" style="stop-color:#BCBEC0"/>
						<stop  offset="0.6593" style="stop-color:#CCCECF"/>
						<stop  offset="0.7508" style="stop-color:#DBDCDD"/>
						<stop  offset="0.8484" style="stop-color:#E3E4E5"/>
						<stop  offset="0.9612" style="stop-color:#E6E7E8"/>
					</radialGradient>
					<path fill="url(#SVGID_6_)" d="M434.496,79.492c-43.376-2.104-90.204-3.281-147.416-3.281c-11.449,0-33.705,0.365-43.875,0.561
						c-17.277,0.332-20.283,11.079-20.389,15.065l213.324,49.525v26.433l7.652,3.068l-318.351-56.579l7.355-3.027l0.096-3.689
						c0,0,0.711-22.76,1.166-33.829l0.309-7.713c0.609-15.088,3.105-22.713,9.203-28.121c9.297-8.252,21.866-8.926,46.915-10.26
						c1.457-0.078,2.953-0.156,4.488-0.24c18.025-0.982,42.58-1.307,73.914-1.498c6.211-0.033,12.742-0.072,19.599-0.123
						c2.121-0.012,4.297-0.018,6.531-0.018c32.586,0,78.621,1.807,120.142,4.715c7.344,0.512,11.977,1.391,13.758,2.619l0.504,0.342
						c0.023,0.018,0.035,0.033,0.059,0.045c0.043,0.033,0.082,0.066,0.121,0.102c0.012,0.006,0.023,0.01,0.027,0.016
						c0.051,0.041,0.102,0.078,0.152,0.119c0,0.006,0.012,0.01,0.012,0.016c0.055,0.045,0.102,0.084,0.152,0.129
						c0.004,0.006,0.004,0.006,0.012,0.012c0.051,0.045,0.094,0.09,0.141,0.135c0.004,0,0.012,0.006,0.012,0.006
						c0.043,0.051,0.086,0.094,0.137,0.139l0,0c1.195,1.273,1.547,3.141,2.133,9.088c0.043,0.471,0.094,0.965,0.145,1.486
						C433.246,52.429,434.406,71.828,434.496,79.492"/>
					<radialGradient id="SVGID_7_" cx="577.1123" cy="347.1113" r="409.9842" gradientUnits="userSpaceOnUse">
						<stop  offset="0.1417" style="stop-color:#808285"/>
						<stop  offset="0.3057" style="stop-color:#999B9E"/>
						<stop  offset="0.4874" style="stop-color:#B2B4B7"/>
						<stop  offset="0.5888" style="stop-color:#BCBEC0"/>
						<stop  offset="0.6329" style="stop-color:#CCCED0"/>
						<stop  offset="0.7028" style="stop-color:#E1E2E3"/>
						<stop  offset="0.776" style="stop-color:#F0F1F1"/>
						<stop  offset="0.8537" style="stop-color:#FAFAFA"/>
						<stop  offset="0.9435" style="stop-color:#FFFFFF"/>
					</radialGradient>
					<path fill="url(#SVGID_7_)" d="M434.496,79.492c-43.376-2.104-90.204-3.281-147.416-3.281c-11.449,0-33.705,0.365-43.875,0.561
						c-17.277,0.332-20.283,11.079-20.389,15.065l213.324,49.525v26.433l7.652,3.068l-318.351-56.579l7.355-3.027l0.096-3.689
						c0,0,0.711-22.76,1.166-33.829l0.309-7.713c0.609-15.088,3.105-22.713,9.203-28.121c9.297-8.252,21.866-8.926,46.915-10.26
						c1.457-0.078,2.953-0.156,4.488-0.24c18.025-0.982,42.58-1.307,73.914-1.498c6.211-0.033,12.742-0.072,19.599-0.123
						c2.121-0.012,4.297-0.018,6.531-0.018c32.586,0,78.621,1.807,120.142,4.715c7.344,0.512,11.977,1.391,13.758,2.619l0.504,0.342
						c0.023,0.018,0.035,0.033,0.059,0.045c0.043,0.033,0.082,0.066,0.121,0.102c0.012,0.006,0.023,0.01,0.027,0.016
						c0.051,0.041,0.102,0.078,0.152,0.119c0,0.006,0.012,0.01,0.012,0.016c0.055,0.045,0.102,0.084,0.152,0.129
						c0.004,0.006,0.004,0.006,0.012,0.012c0.051,0.045,0.094,0.09,0.141,0.135c0.004,0,0.012,0.006,0.012,0.006
						c0.043,0.051,0.086,0.094,0.137,0.139l0,0c1.195,1.273,1.547,3.141,2.133,9.088c0.043,0.471,0.094,0.965,0.145,1.486
						C433.246,52.429,434.406,71.828,434.496,79.492"/>
					<polygon fill="#A7A9AC" points="125.173,135.631 130.724,138.469 130.778,164.632 125.173,170.839 					"/>
					<linearGradient id="SVGID_8_" gradientUnits="userSpaceOnUse" x1="128.7666" y1="284.3145" x2="415.5654" y2="284.3145">
						<stop  offset="0" style="stop-color:#6D6E71;stop-opacity:0.91"/>
						<stop  offset="0.5081" style="stop-color:#4A4A4C;stop-opacity:0.9557"/>
						<stop  offset="1" style="stop-color:#000000"/>
					</linearGradient>
					<path fill="url(#SVGID_8_)" d="M411.395,287.851c2.258-1.467,3.418-2.914,3.832-3.744c0.809-1.621,0.082-3.111-1.254-4.811
						c-7.875,2.461-18.993,3.146-41.036,4.232c-29.641,1.469-61.32,2.328-94.153,2.557c-2.512,0.016-5.027,0.023-7.484,0.023
						c-38.531,0-73.645-2.137-117.802-5.578c-8.215-0.641-13.18-1.336-15.924-3.146c-0.9-0.594-1.625-1.158-2.209-1.816
						c-0.301,0.309-0.695,0.68-1.203,1.139c-2.832,2.539-4.336,2.041-5.395-1.928c0.734,7.955,1.484,9.205,3.432,10.539
						c0.881,0.6,3.553,2.439,13.111,3.105c52.185,3.656,99.187,5.428,143.701,5.428c30.023,0,59.219-0.791,89.227-2.424
						C392.917,290.632,403.355,289.69,411.395,287.851L411.395,287.851z"/>
					<path fill="#939598" d="M132.372,260.034l-0.035-0.438c-0.23-3.566-0.328-6.559-0.48-11.096
						c-0.168-4.994-0.572-14.646-1.188-25.916l-5.316-9.049c0.521,10.787,2.051,41.99,2.754,52.523l0.66,8.719
						c1.059,3.969,2.563,4.467,5.395,1.928c0.508-0.459,0.902-0.83,1.203-1.139c-1.797-2.012-2.309-4.871-2.77-12.008
						C132.517,262.3,132.446,261.144,132.372,260.034z"/>
					<linearGradient id="SVGID_9_" gradientUnits="userSpaceOnUse" x1="424.6611" y1="278.0361" x2="446.9327" y2="197.5551">
						<stop  offset="0.2699" style="stop-color:#58595B"/>
						<stop  offset="0.3398" style="stop-color:#515153"/>
						<stop  offset="0.5821" style="stop-color:#363637"/>
						<stop  offset="0.808" style="stop-color:#131314"/>
						<stop  offset="1" style="stop-color:#000000"/>
					</linearGradient>
					<path fill="url(#SVGID_9_)" d="M438.91,191.374c-0.504,13.09-0.887,22.605-1.262,31.525l-0.02,0.324
						c-0.234,5.545-0.48,11.201-0.781,18.803c-0.867,21.254-5.875,28.098-15.434,33.916c-2.301,1.402-4.672,2.49-7.441,3.354
						c1.336,1.699,2.063,3.189,1.254,4.811c-0.414,0.83-1.574,2.277-3.832,3.744c8.23-1.883,13.953-4.707,19.121-9.307
						c7.254-6.436,10.914-17.752,11.52-35.631c0.539-15.844,1.258-43.674,1.488-52.732L438.91,191.374z"/>
					<radialGradient id="SVGID_10_" cx="568.9648" cy="1085.4385" r="1270.6506" gradientUnits="userSpaceOnUse">
						<stop  offset="0" style="stop-color:#77787B"/>
						<stop  offset="0.0831" style="stop-color:#86888B"/>
						<stop  offset="0.3015" style="stop-color:#ADAFB2"/>
						<stop  offset="0.467" style="stop-color:#C7C9CB"/>
						<stop  offset="0.5589" style="stop-color:#D1D3D4"/>
						<stop  offset="0.6513" style="stop-color:#DCDDDF"/>
						<stop  offset="0.8713" style="stop-color:#F3F4F4"/>
						<stop  offset="1" style="stop-color:#FFFFFF"/>
					</radialGradient>
					<path fill="url(#SVGID_10_)" d="M434.457,222.765c-0.242,5.652-0.488,11.379-0.801,19.127
						c-0.801,19.814-5.309,26.098-13.902,31.328c-8.188,4.988-17.801,5.68-46.978,7.131c-29.602,1.463-61.23,2.32-94.017,2.545
						c-2.5,0.016-5.012,0.021-7.461,0.021c-38.441,0-73.48-2.129-117.558-5.572c-7.494-0.582-12.256-1.199-14.412-2.623
						c-2.32-1.531-2.943-1.939-3.551-11.369c-0.088-1.424-0.18-2.719-0.256-3.959c-0.236-3.609-0.539-6.799-0.713-11.588
						c-0.18-4.91-0.527-9.686-1.238-20.275c56.567,3.123,102.851,3.424,146.024,3.424c2.047,0,11.532,0.018,13.407,0.018
						c6.977,0,15.086-0.027,22.305-0.268c26.973-0.877,34.484-2.844,52.789-21.709l2.527-2.605l-236.791-40.092l-0.004-29.136
						l301.784,53.622l0,0h-0.012c-0.203,5.281-0.434,12.01-0.641,18.098C434.789,214.081,434.637,218.571,434.457,222.765z"/>
					<linearGradient id="SVGID_11_" gradientUnits="userSpaceOnUse" x1="346.6992" y1="200.377" x2="340.0056" y2="227.2236">
						<stop  offset="0.0613" style="stop-color:#6D6E71"/>
						<stop  offset="0.1515" style="stop-color:#898B8E"/>
						<stop  offset="0.2488" style="stop-color:#A2A4A6"/>
						<stop  offset="0.3543" style="stop-color:#B7B9BC"/>
						<stop  offset="0.4692" style="stop-color:#C8CACC"/>
						<stop  offset="0.5981" style="stop-color:#D5D6D8"/>
						<stop  offset="0.7525" style="stop-color:#DCDDDE"/>
						<stop  offset="1" style="stop-color:#DEDFE0"/>
					</linearGradient>
					<path fill="url(#SVGID_11_)" d="M336.597,222.687c-0.086,1.109-1.594,2.662-7.059,3.879
						c14.266-1.738,21.746-6.273,34.949-19.621l-27.781,2.52c0,0-2.938,3.91-5.887,5.307c-1.957,0.918-4.32,1.557-7.613,1.916
						c5.902,1.336,7.84,2.041,10.16,2.973C335.323,220.433,336.655,221.761,336.597,222.687z"/>
					<linearGradient id="SVGID_12_" gradientUnits="userSpaceOnUse" x1="127.5205" y1="220.6982" x2="336.5986" y2="220.6982">
						<stop  offset="0" style="stop-color:#9C9C9C"/>
						<stop  offset="0.1964" style="stop-color:#949494"/>
						<stop  offset="0.5007" style="stop-color:#7E7E7F"/>
						<stop  offset="0.8729" style="stop-color:#5B5B5C"/>
						<stop  offset="1" style="stop-color:#4D4D4F"/>
					</linearGradient>
					<path fill="url(#SVGID_12_)" d="M329.538,226.565c5.465-1.217,6.973-2.77,7.059-3.879c0.059-0.926-1.273-2.254-3.23-3.027
						c-2.32-0.932-4.258-1.637-10.16-2.973c0,0-3.594,0.299-5.816,0.344c-9.75,0.184-21.676,0.273-36.45,0.273
						c-44.881,0-130.286-2.881-153.419-3.689l0,0l9.379,10.832c48.845,2.686,93.626,3.318,142.696,3.318
						c2.047,0,11.313,0.018,13.407,0.018c6.949,0,15.023-0.029,22.203-0.264C320.745,227.339,325.421,227.069,329.538,226.565z"/>
					<g>
						<linearGradient id="SVGID_13_" gradientUnits="userSpaceOnUse" x1="250.3477" y1="117.915" x2="440.6445" y2="117.915">
							<stop  offset="0" style="stop-color:#A7A9AC"/>
							<stop  offset="0.2837" style="stop-color:#AFB1B3"/>
							<stop  offset="0.722" style="stop-color:#C5C5C7"/>
							<stop  offset="1" style="stop-color:#D6D6D6"/>
						</linearGradient>
						<path fill="url(#SVGID_13_)" d="M435.41,137.75l5.234-7.266L250.348,98.08c19.674,6.438,72.546,18.658,112.913,27.752
							C361.347,125.518,428.906,136.652,435.41,137.75z"/>
					</g>
					<g>
						<linearGradient id="SVGID_14_" gradientUnits="userSpaceOnUse" x1="130.3931" y1="171.1826" x2="332.7028" y2="206.306">
							<stop  offset="0" style="stop-color:#808285"/>
							<stop  offset="0.8957" style="stop-color:#000000"/>
						</linearGradient>
						<path fill="url(#SVGID_14_)" d="M315.214,200.333c-5.227-1.02-9.23-1.895-13.477-2.545
							c-1.855-0.281-103.122-17.537-170.6-29.271l-5.965,4.924l211.533,36.023C333.698,205.978,323.163,201.88,315.214,200.333z"/>
					</g>
					<linearGradient id="SVGID_15_" gradientUnits="userSpaceOnUse" x1="132.6909" y1="171.0244" x2="366.3785" y2="209.426">
						<stop  offset="0" style="stop-color:#636466"/>
						<stop  offset="1" style="stop-color:#4D4D4F"/>
					</linearGradient>
					<path fill="url(#SVGID_15_)" d="M315.214,200.333c-5.227-1.02-9.23-1.895-13.477-2.545
						c-1.863-0.281-103.13-17.531-170.6-29.271l2.695-2.219l236.791,40.092l-33.918,3.074
						C334.796,206.847,324.94,202.228,315.214,200.333z"/>
					<path d="M434.496,79.492c-43.376-2.104-90.204-3.281-147.416-3.281c-11.449,0-33.705,0.365-43.875,0.561
						c-21.564,0.416-33.916,10.665-43.813,21.737l-1.754,1.82l35.281-6.143c0,0,0.633-0.908,2.371-2.479
						c-5.287-0.992-6.012-8.292,8.078-10.827c6.441-1.16,17.389-1.248,31.484-1.4c4.613-0.051,8.875-0.08,12.227-0.08
						c53.462,0,100.923-0.295,147.377,1.984l1.336,0.068L434.496,79.492z"/>
					<linearGradient id="SVGID_16_" gradientUnits="userSpaceOnUse" x1="203.2441" y1="110.0088" x2="363.2607" y2="110.0088">
						<stop  offset="0.2242" style="stop-color:#58595B"/>
						<stop  offset="0.3798" style="stop-color:#5D5E60"/>
						<stop  offset="0.5842" style="stop-color:#6B6C6E"/>
						<stop  offset="0.8149" style="stop-color:#7F8183"/>
						<stop  offset="1" style="stop-color:#939598"/>
					</linearGradient>
					<path fill="url(#SVGID_16_)" d="M203.244,99.354c14.533,2.473,97.224,16.141,160.017,26.479
						c-40.367-9.094-93.239-21.314-112.913-27.752l-17.428-3.895L203.244,99.354z"/>
					<radialGradient id="SVGID_17_" cx="435.3828" cy="280.1992" r="394.6003" gradientUnits="userSpaceOnUse">
						<stop  offset="0" style="stop-color:#808285"/>
						<stop  offset="0.1882" style="stop-color:#999B9E"/>
						<stop  offset="0.3966" style="stop-color:#B2B4B7"/>
						<stop  offset="0.513" style="stop-color:#BCBEC0"/>
						<stop  offset="0.5735" style="stop-color:#CCCED0"/>
						<stop  offset="0.6696" style="stop-color:#E1E2E3"/>
						<stop  offset="0.77" style="stop-color:#F0F1F1"/>
						<stop  offset="0.8766" style="stop-color:#FAFAFA"/>
						<stop  offset="1" style="stop-color:#FFFFFF"/>
					</radialGradient>
					<path fill="url(#SVGID_17_)" d="M434.457,222.765c-0.242,5.652-0.488,11.379-0.801,19.127
						c-0.801,19.814-5.309,26.098-13.902,31.328c-8.188,4.988-17.801,5.68-46.978,7.131c-29.602,1.463-61.23,2.32-94.017,2.545
						c-2.5,0.016-5.012,0.021-7.461,0.021c-38.441,0-73.48-2.129-117.558-5.572c-7.494-0.582-12.256-1.199-14.412-2.623
						c-2.32-1.531-2.943-1.939-3.551-11.369c-0.088-1.424-0.18-2.719-0.256-3.959c-0.236-3.609-0.539-6.799-0.713-11.588
						c-0.18-4.91-0.527-9.686-1.238-20.275c56.567,3.123,102.851,3.424,146.024,3.424c2.047,0,11.532,0.018,13.407,0.018
						c6.977,0,15.086-0.027,22.305-0.268c26.973-0.877,34.484-2.844,52.789-21.709l2.527-2.605l-236.791-40.092l-0.004-29.136
						l301.784,53.622l0,0h-0.012c-0.203,5.281-0.434,12.01-0.641,18.098C434.789,214.081,434.637,218.571,434.457,222.765z"/>
					<path fill="#FFFFFF" d="M197.639,100.328l5.605-0.975c22.93,3.902,215.299,35.537,232.166,38.396l5.234-7.266l3.148,0.533
						l-7.652,10.344L197.639,100.328z"/>
					<radialGradient id="SVGID_18_" cx="427.043" cy="285.6816" r="136.316" gradientUnits="userSpaceOnUse">
						<stop  offset="0" style="stop-color:#000000"/>
						<stop  offset="0.283" style="stop-color:#6C6E70"/>
						<stop  offset="0.647" style="stop-color:#B3B5B7"/>
						<stop  offset="0.8118" style="stop-color:#D1D3D4"/>
						<stop  offset="0.8512" style="stop-color:#DCDDDF"/>
						<stop  offset="0.9451" style="stop-color:#F3F4F4"/>
						<stop  offset="1" style="stop-color:#FFFFFF"/>
					</radialGradient>
					<path opacity="0.1" fill="url(#SVGID_18_)" d="M419.754,273.22c8.594-5.23,13.102-11.514,13.902-31.328
						c0.313-7.748,0.559-13.475,0.801-19.127c0.18-4.193,0.332-8.684,0.504-13.883c0.207-6.088,0.438-12.816,0.641-18.098h0.012
						l-85.692-15.225c-14.914,5.09-28.238,12.137-39.316,20.668l60.02,10.162l-2.527,2.605
						c-18.305,18.865-25.816,20.832-52.789,21.709c-7.219,0.24-15.328,0.268-22.305,0.268c-1.41,0-7.11-0.006-10.728-0.012
						c-3.816,8.656-5.875,17.855-5.875,27.398c0,8.492,1.633,16.711,4.676,24.516c31.962-0.248,62.802-1.1,91.7-2.523
						C401.953,278.899,411.566,278.208,419.754,273.22z"/>
				</g>
				<polygon fill="#939598" points="436.141,167.794 439.188,166.903 439.188,137.234 436.141,141.361 				"/>
				<polygon fill="#808285" points="436.141,167.794 439.188,166.903 443.793,169.155 443.793,170.862 				"/>
				<polygon fill="#414042" points="443.793,131.018 439.188,137.234 439.188,166.903 443.793,169.155 				"/>
			</g>
		</g>
	</g>
	<rect x="-70.914" y="-69.292" fill="none" width="710.838" height="595.93"/>
</g>
<g>
</g>
<g>
</g>
<g>
</g>
<g>
</g>
<g>
</g>
<g>
</g>
</svg>
